<svg width="80" height="36" viewBox="0 0 80 36" fill="none" xmlns="http://www.w3.org/2000/svg">
    <rect width="80" height="36" rx="10" fill="#5AFB56"/>
    <path d="M25.988 12.44c.81 0 1.504.139 2.08.416a2.96 2.96 0 0 1 1.328 1.168c.32.501.48 1.11.48 1.824 0 .715-.16 1.328-.48 1.84-.31.501-.752.89-1.328 1.168-.576.267-1.27.4-2.08.4h-2.224V23h-2.208V12.44h4.432zm-.336 5.072c.661 0 1.157-.139 1.488-.416.33-.288.496-.704.496-1.248 0-.555-.166-.97-.496-1.248-.331-.277-.827-.416-1.488-.416h-1.888v3.328h1.888zM40.114 23h-2.288l-.88-2.576h-4.048L32.018 23h-2.256l3.856-10.56h2.64L40.114 23zm-6.72-4.208h3.056l-1.536-4.608-1.52 4.608zM45.46 12.28c.96 0 1.802.165 2.528.496.725.33 1.344.821 1.856 1.472l-1.232 1.424c-.438-.555-.918-.96-1.44-1.216-.512-.267-1.11-.4-1.792-.4-.448 0-.822.059-1.12.176-.288.117-.502.272-.64.464a1.129 1.129 0 0 0-.192.64c0 .288.112.533.336.736.224.192.608.352 1.152.48l1.968.448c1.045.235 1.792.587 2.24 1.056.458.459.688 1.056.688 1.792 0 .693-.182 1.29-.544 1.792-.363.49-.87.87-1.52 1.136-.651.256-1.398.384-2.24.384a7.623 7.623 0 0 1-2.032-.256 6.338 6.338 0 0 1-1.632-.736c-.48-.31-.88-.667-1.2-1.072l1.248-1.488c.245.341.549.645.912.912.362.267.773.48 1.232.64.469.15.96.224 1.472.224.437 0 .805-.048 1.104-.144.309-.107.538-.25.688-.432.16-.192.24-.421.24-.688a.958.958 0 0 0-.288-.704c-.182-.203-.523-.357-1.024-.464l-2.144-.48a6.979 6.979 0 0 1-1.6-.576 2.743 2.743 0 0 1-1.008-.928c-.224-.384-.336-.837-.336-1.36 0-.63.17-1.195.512-1.696.34-.501.832-.896 1.472-1.184.65-.299 1.429-.448 2.336-.448zm10.296 0c.96 0 1.803.165 2.528.496.726.33 1.344.821 1.856 1.472l-1.232 1.424c-.437-.555-.917-.96-1.44-1.216-.512-.267-1.109-.4-1.792-.4-.448 0-.82.059-1.12.176-.288.117-.5.272-.64.464a1.129 1.129 0 0 0-.192.64c0 .288.112.533.336.736.224.192.608.352 1.152.48L57.18 17c1.046.235 1.792.587 2.24 1.056.46.459.688 1.056.688 1.792 0 .693-.18 1.29-.544 1.792-.362.49-.869.87-1.52 1.136-.65.256-1.397.384-2.24.384a7.623 7.623 0 0 1-2.032-.256 6.338 6.338 0 0 1-1.632-.736c-.48-.31-.88-.667-1.2-1.072l1.248-1.488c.246.341.55.645.912.912.363.267.774.48 1.232.64.47.15.96.224 1.472.224.438 0 .806-.048 1.104-.144.31-.107.54-.25.688-.432.16-.192.24-.421.24-.688a.958.958 0 0 0-.288-.704c-.18-.203-.522-.357-1.024-.464l-2.144-.48a6.98 6.98 0 0 1-1.6-.576 2.745 2.745 0 0 1-1.008-.928c-.224-.384-.336-.837-.336-1.36 0-.63.171-1.195.512-1.696.342-.501.832-.896 1.472-1.184.651-.299 1.43-.448 2.336-.448z" fill="#fff"/>
</svg>
