<svg width="209" height="140" viewBox="0 0 209 140" fill="none" xmlns="http://www.w3.org/2000/svg">
    <path d="M183.789 96.046h-50.232v23.276h50.232V96.046z" fill="#F5F5F5"/>
    <path d="M182.594 118.224h-47.886V97.269h47.886v20.955zm-47.574-.313h47.262V97.583H135.02v20.328zM196.062 96.046h-12.273v23.276h12.273V96.046z" fill="#E0E0E0"/>
    <path d="M134.863 103.754h47.574c.081 0 .081-.126 0-.126h-47.574c-.08 0-.08.126 0 .126z" fill="#E0E0E0"/>
    <path d="M158.807 103.693c.142-2.067.128-4.257.016-6.323-.005-.084-.122-.084-.128 0-.111 2.07-.125 4.256.017 6.323.003.061.089.061.095 0zM171.611 100.531c0 .359-.29.653-.649.653a.652.652 0 0 1 0-1.305.65.65 0 0 1 .649.652zM146.643 100.531a.651.651 0 0 1-.649.653.652.652 0 0 1 0-1.305c.36 0 .649.291.649.652zM159.297 107.747c0 .358-.29.652-.65.652a.651.651 0 0 1 0-1.305c.36.003.65.294.65.653zM139.562 119.322l-2.586 14.613h1.454l4.768-14.613h-3.636zM180.236 119.322l2.163 14.638h-1.455l-4.344-14.638h3.636zM189.945 119.322l2.452 14.638h-1.454l-4.634-14.638h3.636zM159.256 114.335c0 .359-.29.653-.65.653a.652.652 0 0 1 0-1.305c.36 0 .65.291.65.652zM134.863 110.964h47.574c.081 0 .081-.126 0-.126h-47.574c-.08-.003-.08.126 0 .126zM168.627 88.146l-.017-3.105-15.187.08.016 3.106 15.188-.08z" fill="#E0E0E0"/>
    <path d="m170.452 95.984-.025-4.828-16.929.09.025 4.828 16.929-.09z" fill="#F5F5F5"/>
    <path d="M167.191 95.948c-.044 0-.081-1.081-.081-2.414 0-1.333.037-2.414.081-2.414.045 0 .081 1.081.081 2.414.003 1.333-.036 2.414-.081 2.414zM167.902 95.948c-.044 0-.081-1.081-.081-2.414 0-1.333.037-2.414.081-2.414.045 0 .081 1.081.081 2.414.003 1.333-.036 2.414-.081 2.414zM156.073 95.948c-.045 0-.081-1.081-.081-2.414 0-1.333.036-2.414.081-2.414.045 0 .081 1.081.081 2.414 0 1.333-.036 2.414-.081 2.414zM156.783 95.948c-.045 0-.084-1.081-.084-2.414 0-1.333.036-2.414.084-2.414.044 0 .081 1.081.081 2.414 0 1.333-.037 2.414-.081 2.414zM158.335 93.61c0-.048 1.708-.084 3.815-.084s3.815.036 3.815.084c0 .044-1.708.084-3.815.084s-3.815-.037-3.815-.084z" fill="#E0E0E0"/>
    <path d="m176.807 91.126-.016-3.105-20.889.111.017 3.105 20.888-.11z" fill="#EBEBEB"/>
    <path d="M173.818 90.74a.995.995 0 0 1-.987-1.006.997.997 0 0 1 .987-1.005c.546 0 .986.451.986 1.005a.995.995 0 0 1-.986 1.006zM171.104 90.046v-.622h-13.983v.622h13.983z" fill="#E0E0E0"/>
    <path d="M13.418 31.133s-1.777 1.36-.075 3.159c.028.03.07.047.112.047l15.53-.092s1.326-1.495.226-3.218l-15.793.104z" fill="#EBEBEB"/>
    <path d="M25.558 32.556c0 .016-1.934.03-4.32.03-2.385 0-4.32-.014-4.32-.03 0-.017 1.935-.031 4.32-.031 2.386-.003 4.32.011 4.32.03zM23.141 33.118c0 .017-.908.031-2.031.031-1.123 0-2.032-.014-2.032-.03 0-.017.909-.031 2.032-.031s2.031.014 2.031.03zM27.146 34.2c-.011-.004.033-.18.084-.468a6.92 6.92 0 0 0 .089-1.14 6.884 6.884 0 0 0-.112-1.137c-.053-.288-.1-.465-.092-.467.003 0 .02.041.045.12.025.078.055.193.089.339a5.567 5.567 0 0 1 .022 2.293 3.74 3.74 0 0 1-.083.339c-.025.078-.04.123-.042.12zM28.305 31.013a.637.637 0 0 1 .07.115 1.3 1.3 0 0 1 .069.14c.025.056.056.117.078.19a3.345 3.345 0 0 1 .215 1.176c0 .235-.023.456-.056.658-.04.199-.087.375-.14.52-.022.074-.052.138-.075.194a1.344 1.344 0 0 1-.067.14.551.551 0 0 1-.067.115c-.01-.006.076-.174.168-.462.047-.143.089-.32.125-.515.03-.196.053-.418.05-.647a4.218 4.218 0 0 0-.061-.647 4.005 4.005 0 0 0-.134-.515c-.097-.289-.186-.457-.175-.462zM15.871 34.222a.539.539 0 0 1-.072-.104 1.23 1.23 0 0 1-.073-.129c-.025-.053-.059-.109-.084-.179a2.516 2.516 0 0 1-.15-.493 3.37 3.37 0 0 1-.061-.63 2.828 2.828 0 0 1 .242-1.114c.028-.067.061-.126.086-.177a.986.986 0 0 1 .076-.128.756.756 0 0 1 .075-.104c.011.006-.09.157-.198.426a2.958 2.958 0 0 0-.148.484 3.219 3.219 0 0 0-.07.616c-.002.221.02.428.054.616.036.188.083.353.136.487.1.27.198.42.187.429zM14.193 34.602a.745.745 0 0 1-.08-.117 1.301 1.301 0 0 1-.081-.146c-.028-.059-.065-.123-.095-.201a3.215 3.215 0 0 1-.178-.552 3.616 3.616 0 0 1-.087-.703c-.003-.252.02-.493.056-.708a3.42 3.42 0 0 1 .153-.557c.025-.079.059-.146.084-.205.025-.061.053-.11.075-.151.045-.081.07-.123.075-.12.011.005-.089.181-.192.492-.053.154-.1.342-.14.555a3.917 3.917 0 0 0-.05.697c.006.25.04.481.081.691.048.21.103.395.162.547.122.3.228.47.217.478z" fill="#E0E0E0"/>
    <path d="M28.419 39.001v2.988h-5.752V39h5.752z" fill="#EBEBEB"/>
    <path d="m9.846 40.524.003.079c.047.904.81 1.601 1.71 1.601h17.128v-.215H24.62c-.822 0-1.485-.67-1.485-1.493 0-.826.666-1.492 1.485-1.492h4.066v-.316l-17.133.058c-.967 0-1.744.807-1.708 1.778z" fill="#E0E0E0"/>
    <path d="M28.42 40.535c0 .017-1.182.031-2.643.031-1.46 0-2.641-.014-2.641-.03 0-.017 1.181-.031 2.642-.031 1.46 0 2.641.014 2.641.03zM28.335 41.208c0 .016-1.12.03-2.5.03-1.379 0-2.5-.014-2.5-.03 0-.017 1.118-.031 2.5-.031 1.383 0 2.5.014 2.5.03zM28.419 41.824c0 .016-1.006.03-2.246.03s-2.246-.014-2.246-.03c0-.017 1.006-.031 2.246-.031s2.246.014 2.246.03zM28.42 39.93c0 .017-1.16.032-2.587.032-1.43 0-2.586-.015-2.586-.031 0-.017 1.16-.031 2.586-.031 1.427 0 2.586.014 2.586.03zM28.335 39.326c0 .017-1.031.03-2.302.03-1.27 0-2.302-.013-2.302-.03s1.031-.03 2.302-.03c1.271 0 2.302.013 2.302.03z" fill="#E0E0E0"/>
    <path d="M11.919 38.794c.008.008-.167.146-.365.434a2.295 2.295 0 0 0-.39 1.285c.005.535.217.994.42 1.274.204.286.385.417.374.426a.602.602 0 0 1-.123-.093 2 2 0 0 1-.287-.308 2.232 2.232 0 0 1-.448-1.299 2.242 2.242 0 0 1 .418-1.31c.106-.146.203-.25.278-.314a.665.665 0 0 1 .123-.095z" fill="#F5F5F5"/>
    <path d="M11.343 38.73c.008.008-.167.145-.365.433a2.295 2.295 0 0 0-.39 1.286c.005.534.217.994.42 1.274.204.285.385.417.374.425a.606.606 0 0 1-.123-.092 2.005 2.005 0 0 1-.287-.308 2.232 2.232 0 0 1-.448-1.3 2.243 2.243 0 0 1 .418-1.31 1.86 1.86 0 0 1 .278-.313.568.568 0 0 1 .123-.096zM22.98 38.794c.008.008-.168.146-.366.434a2.294 2.294 0 0 0-.39 1.285c.006.535.218.994.421 1.274.204.286.385.417.374.426a.604.604 0 0 1-.123-.093 2.005 2.005 0 0 1-.287-.308 2.232 2.232 0 0 1-.449-1.299 2.242 2.242 0 0 1 .418-1.31 1.86 1.86 0 0 1 .279-.314.574.574 0 0 1 .123-.095z" fill="#F5F5F5"/>
    <path d="M22.4 38.73c.008.008-.168.145-.366.433a2.294 2.294 0 0 0-.39 1.286c.009.534.218.994.421 1.274.203.285.385.417.373.425a.602.602 0 0 1-.122-.092 2 2 0 0 1-.287-.308 2.232 2.232 0 0 1-.449-1.3 2.242 2.242 0 0 1 .418-1.31 1.86 1.86 0 0 1 .279-.313.57.57 0 0 1 .122-.096zM13.87 40.941l-.017-1.215a.846.846 0 0 0-.041-.313c-.04-.098-.126-.185-.229-.194-.15-.067-.387.06-.493.236-.106.176-.117.389-.12.596-.003.32.014.641.047.96.017.152.037.308.112.44.075.132.217.238.368.224.15-.014.27-.14.323-.283.053-.143.053-.3.05-.45zM20.522 40.594c0 .017-1.237.031-2.764.031-1.528 0-2.765-.014-2.765-.03 0-.017 1.237-.032 2.764-.032 1.528 0 2.765.014 2.765.031zM12.722 38.674l-.03-2.831h1.532l.053 2.83h-1.555z" fill="#F5F5F5"/>
    <path d="M14.135 36.347c0 .017-.32.03-.714.03-.393 0-.713-.014-.713-.03 0-.017.318-.031.713-.031.393 0 .714.014.714.03zM14.135 36.783c0 .017-.32.031-.714.031-.393 0-.713-.014-.713-.03 0-.017.318-.031.713-.031.393 0 .714.014.714.03zM14.135 37.22c0 .017-.32.031-.714.031-.393 0-.713-.014-.713-.03 0-.017.318-.031.713-.031.393 0 .714.014.714.03zM14.135 37.657c0 .017-.32.031-.714.031-.393 0-.713-.014-.713-.03 0-.017.318-.032.713-.032.393 0 .714.015.714.031zM14.135 38.094c0 .017-.32.03-.714.03-.393 0-.713-.013-.713-.03s.318-.03.713-.03c.393 0 .714.013.714.03z" fill="#E0E0E0"/>
    <path d="M12.61 35.767h16.996c.21.938.181 1.968 0 3.06H12.683v-.207h1.034c.27 0 .487-.218.487-.49v-1.694a.488.488 0 0 0-.487-.49H12.61v-.179z" fill="#EBEBEB"/>
    <path d="M16.628 37.299h.285c.01 0 .022.003.03.008.02.011.031.031.031.053 0 .009 0 .014-.003.02a.726.726 0 0 1-.02.073.766.766 0 0 1-.178.322c-.078.084-.158.126-.242.126-.011 0-.022 0-.033-.003-.079-.011-.143-.059-.193-.14a.649.649 0 0 1-.083-.344c0-.082.01-.163.033-.244a.84.84 0 0 1 .167-.33c.081-.09.165-.138.257-.138.039 0 .075.009.108.026a.352.352 0 0 1 .17.235c0 .011-.002.02-.008.03a.06.06 0 0 1-.053.031c-.006 0-.011 0-.02-.002a.055.055 0 0 1-.039-.04l-.002-.005a.251.251 0 0 0-.034-.067c-.036-.054-.083-.082-.136-.082a.17.17 0 0 0-.095.034.516.516 0 0 0-.156.224.844.844 0 0 0-.067.322c0 .1.017.185.05.252.037.076.087.112.148.112.042 0 .09-.028.136-.084a.731.731 0 0 0 .145-.266c-.13 0-.198 0-.203-.003-.045-.008-.067-.03-.067-.07 0-.008.003-.014.006-.02.014-.019.033-.03.066-.03zM17.593 36.744a.127.127 0 0 1 .008.02c.012.042.078.395.201 1.058.003.006.003.011.003.014a.056.056 0 0 1-.009.031.055.055 0 0 1-.05.03h-.008c-.025-.002-.04-.019-.047-.041l-.067-.353h-.349l-.167.353c-.003.003-.003.008-.006.011-.016.02-.033.03-.052.03a.054.054 0 0 1-.034-.01c-.02-.014-.028-.031-.028-.05 0-.006 0-.012.003-.02.011-.026.028-.065.053-.115.245-.535.39-.851.438-.95.014-.027.033-.041.058-.041.022.003.04.014.053.033zm-.075.236-.19.4h.268l-.078-.4zM18.54 37.9h-.513a.053.053 0 0 1-.033-.01c-.014-.012-.025-.034-.028-.065 0-.02.047-.372.142-1.053 0-.008.003-.014.003-.022.01-.025.028-.036.055-.036.012 0 .02.002.028.005a.055.055 0 0 1 .034.053l-.034.289-.092.711h.435c.011 0 .022.003.034.006a.06.06 0 0 1 .038.058c0 .006 0 .014-.002.02-.011.025-.034.04-.067.045zM19.24 36.744a.137.137 0 0 1 .008.02c.01.042.078.395.2 1.058.003.006.003.011.003.014a.057.057 0 0 1-.008.031.056.056 0 0 1-.05.03h-.012c-.025-.002-.039-.019-.047-.041l-.067-.353h-.348l-.167.353a.021.021 0 0 1-.006.011c-.017.02-.033.03-.053.03a.053.053 0 0 1-.033-.01c-.02-.014-.028-.031-.028-.05 0-.006 0-.012.003-.02.01-.026.027-.065.053-.115.245-.535.39-.851.437-.95.014-.027.034-.041.059-.041.025.003.044.014.055.033zm-.076.236-.19.4h.268l-.078-.4zM20.056 37.352l.092.258c.053.145.078.224.078.232a.042.042 0 0 1-.011.03.056.056 0 0 1-.05.029c-.023 0-.04-.014-.05-.042-.003-.012-.009-.02-.009-.026a7.401 7.401 0 0 1-.136-.364l-.29.398a.075.075 0 0 1-.053.034.056.056 0 0 1-.03-.009c-.02-.01-.029-.028-.029-.05v-.014a.189.189 0 0 1 .031-.05c.098-.127.203-.278.323-.451-.01-.034-.025-.067-.036-.098a9.67 9.67 0 0 1-.164-.457c0-.01.002-.022.008-.03a.055.055 0 0 1 .05-.031c.025 0 .045.01.059.033l.17.462.342-.467a.065.065 0 0 1 .056-.028c.011 0 .02.003.028.005.02.011.03.031.03.056 0 .009-.002.017-.005.028l-.404.552zM21.324 36.716a.1.1 0 0 1 .028.006c.02.011.03.028.033.053a82.513 82.513 0 0 1-.139 1.078.67.67 0 0 1-.109.28.396.396 0 0 1-.504.123.382.382 0 0 1-.181-.16c-.006-.008-.006-.019-.006-.03s.003-.02.009-.03a.06.06 0 0 1 .053-.032c.02 0 .033.009.047.026.075.1.164.148.262.15a.261.261 0 0 0 .203-.103.579.579 0 0 0 .115-.325.316.316 0 0 1-.26.143c-.01 0-.022 0-.033-.003-.078-.01-.142-.058-.195-.14a.65.65 0 0 1-.086-.344c0-.062.002-.126.008-.193.008-.104.033-.252.07-.443 0-.005.002-.01.005-.016.011-.028.028-.042.056-.042.011 0 .02.002.03.008.02.011.031.028.031.048 0 .03-.008.109-.028.235a3.143 3.143 0 0 0-.041.358c0 .115.014.207.044.28.036.084.087.126.15.126.006 0 .015 0 .02-.003.05-.01.1-.05.153-.123a.721.721 0 0 0 .126-.283l.078-.588c0-.008.003-.016.008-.025a.057.057 0 0 1 .053-.03z" fill="#FAFAFA"/>
    <path d="M28.968 38.867c-.017 0-.03-.703-.03-1.571s.013-1.57.03-1.57.03.702.03 1.57c0 .868-.013 1.57-.03 1.57z" fill="#F5F5F5"/>
    <path d="M15.06 38.867c-.017 0-.03-.703-.03-1.571s.013-1.57.03-1.57.03.702.03 1.57c0 .868-.013 1.57-.03 1.57z" fill="#E0E0E0"/>
    <path d="M29.266 38.867c-.017 0-.03-.703-.03-1.571s.013-1.57.03-1.57.03.702.03 1.57c0 .868-.013 1.57-.03 1.57z" fill="#F5F5F5"/>
    <path d="M14.782 38.867c-.017 0-.031-.703-.031-1.571s.014-1.57.03-1.57c.017 0 .031.702.031 1.57 0 .868-.014 1.57-.03 1.57zM24.846 36.246l-.002-.006c.465.375 1.095.888 1.797 1.456l.017.014-.02.006-.24.064c-.546.143-1.061.28-1.515.4h-.006l-1.374-.585a52.772 52.772 0 0 0-.39-.168c-.044-.02-.078-.033-.103-.044l-.025-.012c-.006-.002-.008-.005-.008-.005l.008.003c.006.002.017.005.028.01.025.012.058.026.103.043l.39.162c.337.14.814.342 1.377.58h-.006l1.516-.403c.08-.023.164-.042.24-.065l-.003.017-1.792-1.462-.003-.002v-.003" fill="#E0E0E0"/>
    <path d="m26.477 37.47.097.092.134-.028-.059.123.067.115-.133-.017-.09.1-.025-.13-.122-.057.117-.064.014-.135zM24.755 38.044l.067.056.083-.023-.033.081.05.073-.09-.008-.052.07-.022-.084-.081-.031.075-.048.003-.087zM22.852 37.26l.105.005.067-.084.025.104.1.036-.088.059-.003.106-.084-.067-.103.028.04-.098-.06-.09zM27.282 36.268l.106.006.067-.084.028.104.1.039-.092.056-.003.106-.083-.067-.103.03.041-.1-.06-.09zM24.76 36.198l.068.003.041-.053.017.067.064.022-.055.037-.003.07-.053-.045-.067.02.025-.065-.036-.056z" fill="#E0E0E0"/>
    <path d="M27.433 36.344c0 .005-.582-.011-1.298-.042a38.988 38.988 0 0 1-1.296-.067c0-.006.582.01 1.299.042.716.028 1.295.059 1.295.067zM28.084 35.742H10.846c-.226-.515-.281-1.002 0-1.442h17.238c.226.524.207 1.002 0 1.442z" fill="#E0E0E0"/>
    <path d="M23.754 34.712h-9.338v.523h9.338v-.523z" fill="#EBEBEB"/>
    <path d="M11.51 35.75c-.006.006-.067-.056-.137-.173-.07-.118-.14-.3-.156-.512a1.3 1.3 0 0 1 .067-.532c.047-.13.097-.2.103-.197.008.006-.025.082-.061.21-.037.13-.064.311-.045.513.02.202.078.378.134.495.053.12.103.188.095.197zM11.883 35.75c-.006.006-.067-.056-.137-.173-.07-.118-.14-.3-.156-.512a1.3 1.3 0 0 1 .067-.532c.047-.13.098-.2.103-.197.008.006-.025.082-.061.21-.037.13-.064.311-.045.513.02.202.078.378.134.495.053.12.103.188.095.197z" fill="#E0E0E0"/>
    <path d="M27.388 35.717c-.02-.006.122-.308.122-.706.006-.397-.13-.7-.114-.705.011-.011.181.29.175.705 0 .415-.172.714-.183.706zM27.067 35.711c-.02-.005.053-.308.053-.691 0-.381-.073-.686-.053-.692.014-.006.117.3.117.689-.003.397-.103.7-.117.694z" fill="#F5F5F5"/>
    <path d="m42.344 14.267-6.139.033.035 6.54 6.139-.033-.035-6.54z" fill="#EBEBEB"/>
    <path d="m48.453 14.233-6.14.033.035 6.54 6.14-.032-.035-6.541z" fill="#F5F5F5"/>
    <path d="M36.214 16.106c4.08.033 8.167.01 12.247-.056.084 0 .084-.132 0-.132-4.08-.022-8.168-.003-12.247.076-.073 0-.073.112 0 .112z" fill="#E0E0E0"/>
    <path d="m43.528 20.699-11.152.06.028 5.331 11.153-.06-.029-5.331z" fill="#EBEBEB"/>
    <path d="m54.628 20.64-11.152.06.028 5.331 11.152-.06-.028-5.331z" fill="#F5F5F5"/>
    <path d="M32.384 22.24c7.407.085 14.842.009 22.25-.109.083-.003.083-.131 0-.131-7.41-.04-14.843-.034-22.25.128-.072.003-.072.113 0 .113z" fill="#E0E0E0"/>
    <path d="m33.463 50.875-11.152.06.028 5.331 11.152-.06-.028-5.331z" fill="#EBEBEB"/>
    <path d="m44.562 50.816-11.152.06.029 5.331 11.152-.06-.029-5.331z" fill="#F5F5F5"/>
    <path d="M22.319 52.416c7.407.084 14.842.008 22.249-.11.083-.002.083-.13 0-.13-7.41-.04-14.842-.034-22.249.128-.072.003-.072.112 0 .112zM18.494 12.041l-2.811.015.075 14.065 2.811-.016-.075-14.064z" fill="#E0E0E0"/>
    <path d="m21.24 6.797-2.812.015.103 19.342 2.812-.015-.104-19.342z" fill="#EBEBEB"/>
    <path d="m25.635 10.396-4.372.024.083 15.674 4.373-.024-.084-15.674z" fill="#F5F5F5"/>
    <path d="M25.604 13.418c0 .042-.978.075-2.185.075s-2.185-.034-2.185-.075c0-.042.978-.076 2.185-.076 1.207-.003 2.185.034 2.185.075zM25.604 12.757c0 .042-.978.075-2.185.075s-2.185-.033-2.185-.075c0-.042.978-.076 2.185-.076s2.185.034 2.185.076zM25.604 23.713c0 .042-.978.076-2.185.076s-2.185-.034-2.185-.076c0-.042.978-.076 2.185-.076s2.185.034 2.185.076zM25.604 23.055c0 .042-.978.076-2.185.076s-2.185-.034-2.185-.076c0-.042.978-.075 2.185-.075s2.185.033 2.185.075zM23.488 21.619c-.041 0-.075-1.582-.075-3.531 0-1.952.034-3.534.075-3.534.042 0 .076 1.582.076 3.534 0 1.949-.034 3.53-.076 3.53z" fill="#E0E0E0"/>
    <path d="M30.408 14.246h-4.757V26.08h4.757V14.246z" fill="#EBEBEB"/>
    <path d="M20.6 10.097a.81.81 0 0 1-.809.812.81.81 0 0 1-.808-.812.81.81 0 0 1 .808-.812.81.81 0 0 1 .809.812zM20.039 12.331h-.499V23.84h.499V12.331zM57.37 42.303H7.844v1.702h49.524v-1.703zM57.37 26.155H7.844v1.702h49.524v-1.702zM57.37 56.274H17.952v1.608H57.37v-1.608z" fill="#E0E0E0"/>
    <path d="M32.607 27.524h-1.89v16.063h1.89V27.524zM19.852 42.303h-1.89v15.573h1.89V42.303z" fill="#E0E0E0"/>
    <path d="M42.062 35 40.9 36.677s2.611.728 2.611 3.063c0 2.333-1.597 2.77-3.338 2.77-1.742 0-3.411-.51-3.339-2.842.073-2.333 2.25-3.21 2.25-3.21L37.993 35h4.068z" fill="#F5F5F5"/>
    <path d="M197.625 13.723h-1.959v42.302h1.959V13.723z" fill="#E0E0E0"/>
    <path d="M167.262 14.078v41.978c0 .017.014.028.028.028h28.05a.028.028 0 0 0 .028-.028V14.078a.028.028 0 0 0-.028-.028h-28.048c-.016-.003-.03.011-.03.028z" fill="#F5F5F5"/>
    <path d="M195.666 56.409h-28.703c-.016 0-.027-.014-.027-.028V13.75c0-.017.013-.028.027-.028h28.703c.017 0 .028.014.028.028v42.63c0 .017-.011.028-.028.028zm-28.051-.653h27.399a.028.028 0 0 0 .028-.028V14.403a.028.028 0 0 0-.028-.028h-27.399c-.016 0-.027.014-.027.028v41.322c0 .017.014.031.027.031z" fill="#EBEBEB"/>
    <path d="M170.093 16.671v36.761c0 .017.014.028.028.028h22.438a.028.028 0 0 0 .028-.028v-36.76a.028.028 0 0 0-.028-.029h-22.438a.028.028 0 0 0-.028.028z" fill="#fff"/>
    <path d="M187.613 41.955h-12.596a.016.016 0 0 1-.017-.017v-14.84c0-.01.008-.017.017-.017h12.596c.011 0 .016.009.016.017v14.84c.003.009-.005.017-.016.017z" fill="#EBEBEB"/>
    <path d="M186.631 40.135c.017.048-.607.322-1.794.182a4.357 4.357 0 0 1-2.015-.81 4.091 4.091 0 0 1-1.566-2.474c-.231-1.112.139-2.495 1.198-3.386.262-.22.569-.406.909-.534.359-.135.749-.18 1.137-.132.384.048.791.182 1.137.498.348.317.537.854.448 1.33-.081.482-.343.852-.624 1.143-.29.297-.619.515-.95.705a5.203 5.203 0 0 1-2.271.653 4.49 4.49 0 0 1-2.419-.555 4.425 4.425 0 0 1-1.781-1.853c-.404-.787-.532-1.742-.32-2.596a3.857 3.857 0 0 1 1.362-2.139c.34-.263.722-.46 1.143-.58.421-.109.855-.128 1.284-.039.424.09.859.3 1.168.661.312.358.454.829.457 1.252a2.39 2.39 0 0 1-.304 1.192c-.192.35-.448.633-.719.871a4.835 4.835 0 0 1-1.789.955 4.556 4.556 0 0 1-1.883.146 3.87 3.87 0 0 1-1.639-.63c-.931-.636-1.469-1.6-1.566-2.49a3.023 3.023 0 0 1 .58-2.136c.365-.493.783-.745 1.072-.86.296-.112.463-.109.471-.08.011.038-.133.106-.373.265-.234.163-.566.44-.833.902-.262.453-.48 1.109-.343 1.823.125.71.61 1.478 1.39 1.957.767.487 1.84.613 2.871.274a4.005 4.005 0 0 0 1.435-.817c.412-.373.694-.852.671-1.353-.013-.501-.328-.857-.863-.96a1.876 1.876 0 0 0-.825.039 2.428 2.428 0 0 0-.781.409c-.476.378-.836.949-.983 1.573-.151.625-.062 1.286.242 1.888.298.599.792 1.097 1.36 1.42a3.489 3.489 0 0 0 1.87.436 4.237 4.237 0 0 0 1.839-.504c.282-.151.538-.325.733-.52.201-.197.34-.42.373-.611a.533.533 0 0 0-.15-.49c-.137-.135-.365-.235-.607-.269a1.538 1.538 0 0 0-.717.062c-.242.084-.468.21-.666.366a2.756 2.756 0 0 0-.869 1.204 2.788 2.788 0 0 0-.148 1.384c.134.907.641 1.657 1.204 2.142a4.224 4.224 0 0 0 1.731.868c1.064.252 1.705.128 1.713.218z" fill="#E0E0E0"/>
    <path d="M53.624 127.218v6.91h21.154v-6.91H53.624z" fill="#F5F5F5"/>
    <path d="M52.738 125.286v1.932H75.52v-1.932H52.738z" fill="#E0E0E0"/>
    <path d="M64.128 134.128h10.65v-6.91h.742v-1.932H63.685v1.753l.443 7.089zM60.873 128.332h-4.289v1.042h4.289v-1.042z" fill="#E0E0E0"/>
    <path d="M61.541 130.673h-5.509v2.198h5.51v-2.198z" fill="#fff"/>
    <path d="M58.548 118.384v6.91H79.7v-6.91H58.548z" fill="#F5F5F5"/>
    <path d="M57.66 116.452v1.932h22.78v-1.932H57.66z" fill="#E0E0E0"/>
    <path d="M69.051 125.294h10.651v-6.91h.738v-1.932H68.606v1.753l.445 7.089zM65.794 119.498h-4.29v1.042h4.29v-1.042z" fill="#E0E0E0"/>
    <path d="M66.462 121.839h-5.509v2.198h5.51v-2.198z" fill="#fff"/>
    <path d="M15.427 126.969v6.91H36.58v-6.91H15.427z" fill="#F5F5F5"/>
    <path d="M14.541 125.037v1.932h22.781v-1.932H14.541z" fill="#E0E0E0"/>
    <path d="M25.93 133.879h10.651v-6.91h.741v-1.932H25.487v1.752l.443 7.09zM22.675 128.083h-4.288v1.042h4.288v-1.042z" fill="#E0E0E0"/>
    <path d="M23.344 130.424h-5.509v2.198h5.51v-2.198z" fill="#fff"/>
    <path d="M188.841 133.904c0 .04-37.141.073-82.945.073-45.821 0-82.954-.033-82.954-.073 0-.039 37.133-.072 82.954-.072 45.804 0 82.945.03 82.945.072z" fill="#263238"/>
    <path d="m172.648 21.918-.045 85.627c0 2.649-2.137 4.794-4.773 4.791l-126.45-.067c-2.637 0-4.772-2.148-4.769-4.797l.045-85.63c.003-2.648 2.14-4.793 4.773-4.79l126.451.067c2.633.003 4.768 2.15 4.768 4.8z" fill="#E0E0E0"/>
    <path d="M172.648 21.918s-.008-.1-.02-.296a2.395 2.395 0 0 0-.036-.364c-.022-.146-.042-.314-.097-.502a4.629 4.629 0 0 0-.555-1.327 4.831 4.831 0 0 0-1.354-1.442 4.567 4.567 0 0 0-1.059-.549 4.623 4.623 0 0 0-1.293-.282l-.351-.017h-2.701c-2.207 0-4.754.003-7.621.003-11.47 0-28.067-.003-48.574-.003l-33.544-.009c-6.027-.002-12.264-.002-18.687-.005-3.21 0-6.47-.003-9.773-.003-1.652 0-3.313 0-4.988-.003-.42 0-.836-.011-1.246.053-.412.048-.808.182-1.192.336a4.761 4.761 0 0 0-1.926 1.552c-.134.162-.226.352-.34.529-.086.19-.195.372-.256.574-.162.389-.237.809-.29 1.226-.03.42-.022.851-.022 1.28v1.29c0 1.725-.003 3.459-.003 5.203-.003 3.489-.003 7.017-.006 10.581l-.008 21.823-.022 45.892a5.4 5.4 0 0 0 .214 1.431c.148.459.365.896.638 1.294.27.4.616.742.995 1.039a4.43 4.43 0 0 0 1.254.688c.9.364 1.887.272 2.854.286a14843.875 14843.875 0 0 0 14.415.008c7.622.006 15.129.009 22.508.014l42.55.028 38.503.028c1.508 0 3.001.003 4.484.003.741 0 1.477 0 2.212.003.368.003.733.003 1.09-.036a4.686 4.686 0 0 0 1.048-.252c1.36-.482 2.43-1.633 2.867-2.98.056-.168.092-.341.137-.512.025-.174.058-.347.075-.524.025-.35.022-.705.022-1.061 0-.711 0-1.417.003-2.119.006-5.626.009-11.021.014-16.173l.048-48.804c.008-5.763.016-10.234.019-13.27l.008-3.45c0-.783.006-1.18.006-1.18s.006.397.006 1.175c0 .779.002 1.935.005 3.45.003 3.035.003 7.507.006 13.27 0 11.524-.003 28.198-.003 48.803 0 5.152-.003 10.548-.003 16.173v2.12c0 .355.003.711-.022 1.072-.014.179-.05.358-.075.538-.048.173-.084.352-.14.523-.446 1.381-1.541 2.559-2.937 3.055-.343.134-.708.21-1.073.26a9.266 9.266 0 0 1-1.103.04h-6.697c-12.058-.006-24.943-.009-38.503-.014-13.56-.006-27.794-.012-42.55-.02l-22.508-.011c-3.809-.003-7.649-.003-11.511-.006-.967 0-1.934 0-2.904-.003-.485-.005-.967.009-1.457-.011a4.57 4.57 0 0 1-1.447-.283 4.485 4.485 0 0 1-1.293-.711 4.846 4.846 0 0 1-1.683-2.402 5.504 5.504 0 0 1-.223-1.473l.025-45.892c.006-7.412.009-14.692.014-21.823.003-3.565.006-7.093.006-10.582 0-1.744.003-3.477.003-5.202v-1.29c.002-.432-.009-.858.025-1.294.053-.429.13-.86.298-1.263.064-.207.175-.395.265-.59.117-.183.211-.379.348-.544a4.86 4.86 0 0 1 1.981-1.596c.396-.16.803-.297 1.226-.345.421-.067.848-.053 1.263-.055l4.988.002c3.302.003 6.56.006 9.773.006 6.423.006 12.657.008 18.687.014 12.058.008 23.291.02 33.543.028l48.575.047c2.867.003 5.414.009 7.621.012l1.591.002h1.109c.12.006.237.012.354.02.466.04.906.132 1.302.286.401.14.749.344 1.064.557.619.44 1.059.963 1.357 1.453.296.496.468.955.552 1.333.056.188.072.358.095.504.025.146.03.269.033.367.014.198.017.3.017.3z" fill="#263238"/>
    <path d="m46.053 20.236-.047 89.211 113.57.06.047-89.21-113.57-.06z" fill="#fff"/>
    <path d="M165.793 61.074c2.009 0 3.634 1.638 3.634 3.654 0 2.018-1.631 3.654-3.637 3.65-2.009 0-3.634-1.637-3.634-3.656a3.644 3.644 0 0 1 3.637-3.648zM42.056 50.663l-.014 27.997c0 .188-.15.34-.34.34h-.825a.338.338 0 0 1-.337-.342l.014-27.998c0-.187.15-.341.34-.338h.825a.34.34 0 0 1 .337.341z" fill="#263238"/>
    <path d="M97.6 103.368H56.215a1.517 1.517 0 0 1-1.513-1.521v-4.351c0-.84.677-1.52 1.513-1.52H97.6c.836 0 1.513.68 1.513 1.52v4.351c0 .84-.677 1.521-1.513 1.521zM97.221 87.534H55.836c-.836 0-1.513-.68-1.513-1.52v-4.352c0-.84.677-1.52 1.513-1.52h41.385c.836 0 1.513.68 1.513 1.52v4.351c0 .84-.677 1.52-1.513 1.52zM144.946 87.534h-41.382c-.836 0-1.513-.68-1.513-1.52v-4.352c0-.84.677-1.52 1.513-1.52h41.385c.836 0 1.513.68 1.513 1.52v4.351a1.52 1.52 0 0 1-1.516 1.52zM144.483 42.543H104.75c-.836 0-1.513-.68-1.513-1.52V36.67c0-.84.677-1.52 1.513-1.52h39.733c.836 0 1.513.68 1.513 1.52v4.352a1.52 1.52 0 0 1-1.513 1.52zM145.492 57.224H56.215c-.836 0-1.513-.68-1.513-1.52v-4.352c0-.84.677-1.52 1.513-1.52h89.277c.836 0 1.513.68 1.513 1.52v4.351c0 .84-.677 1.52-1.513 1.52zM97.53 42.543H56.15c-.836 0-1.513-.68-1.513-1.52V36.67c0-.84.677-1.52 1.513-1.52h41.385c.836 0 1.513.68 1.513 1.52v4.352a1.52 1.52 0 0 1-1.516 1.52z" fill="#F5F5F5"/>
    <path d="M57.715 39.023v.505h-.207v-.507l-.576-.95h.223l.462.768.466-.767h.206l-.574.951zM58.244 38.976c0-.328.243-.563.571-.563.33 0 .569.233.569.563 0 .33-.24.563-.569.563a.547.547 0 0 1-.57-.563zm.942 0c0-.235-.156-.386-.368-.386s-.37.15-.37.386c0 .235.158.39.37.39.21 0 .368-.155.368-.39zM60.685 38.424v1.104h-.19v-.166a.445.445 0 0 1-.373.18c-.284 0-.47-.157-.47-.482v-.636h.197v.61c0 .216.109.326.296.326.206 0 .34-.13.34-.367v-.571h.2v.002zM61.655 38.413v.193c-.016-.003-.03-.003-.044-.003-.215 0-.346.132-.346.373v.549h-.198v-1.103h.19v.184c.07-.126.206-.193.398-.193zM63.748 38.072v1.456h-.17l-.87-1.087v1.087h-.206v-1.456h.17l.87 1.086V38.07h.206zM65.024 38.861v.667h-.19v-.146c-.066.1-.189.157-.359.157-.248 0-.407-.135-.407-.325 0-.176.115-.322.44-.322h.316v-.04c0-.167-.098-.265-.296-.265a.556.556 0 0 0-.348.117l-.084-.15a.728.728 0 0 1 .454-.144c.304.003.474.149.474.451zm-.2.33v-.153h-.307c-.198 0-.254.075-.254.17 0 .11.092.18.243.18.15-.003.267-.07.317-.196zM67.214 38.892v.636h-.198v-.61c0-.216-.103-.323-.284-.323-.198 0-.329.126-.329.367v.568h-.198v-.61c0-.216-.103-.322-.284-.322-.198 0-.329.126-.329.367v.568h-.198V38.43h.19v.165c.078-.112.215-.173.379-.173.167 0 .31.067.382.204a.494.494 0 0 1 .423-.204c.265-.009.446.145.446.47zM68.574 39.043h-.892c.025.193.181.322.399.322a.412.412 0 0 0 .317-.134l.11.128c-.101.118-.252.18-.433.18-.354 0-.59-.236-.59-.563a.54.54 0 0 1 .551-.563c.318 0 .543.23.543.569a.502.502 0 0 1-.005.061zm-.889-.143h.705a.342.342 0 0 0-.351-.316.342.342 0 0 0-.354.316z" fill="#E0E0E0"/>
    <path d="M62.538 31.805v1.456h-.223l-.8-.985v.985h-.267v-1.456h.22l.8.986v-.986h.27zM63.83 32.611v.653h-.246v-.135c-.061.096-.181.152-.348.152-.254 0-.413-.14-.413-.334 0-.184.126-.33.46-.33h.287V32.6c0-.15-.092-.24-.276-.24a.544.544 0 0 0-.334.109l-.1-.19a.768.768 0 0 1 .468-.138c.317-.003.501.151.501.47zm-.26.306v-.13h-.267c-.176 0-.223.068-.223.15 0 .092.078.153.211.153.126-.003.235-.061.28-.173zM66.008 32.625v.636h-.26v-.602c0-.199-.091-.294-.248-.294-.17 0-.287.112-.287.333v.563h-.259v-.602c0-.199-.092-.294-.248-.294-.172 0-.287.112-.287.333v.563h-.259v-1.112h.245v.143a.456.456 0 0 1 .363-.154c.161 0 .295.062.373.185a.513.513 0 0 1 .415-.185c.268 0 .452.154.452.487zM67.388 32.79h-.867c.03.163.164.267.36.267.125 0 .222-.04.3-.12l.14.159c-.1.117-.254.182-.446.182-.37 0-.61-.241-.61-.571 0-.33.242-.569.57-.569.324 0 .561.227.561.574l-.008.079zm-.87-.173h.627a.301.301 0 0 0-.312-.272.31.31 0 0 0-.315.272zM56.413 32.093v.362h.628v.252h-.627v.495h-.315V31.84h1.028v.252h-.714v.002zM57.26 31.841c0-.095.076-.17.187-.17.112 0 .19.07.19.162 0 .1-.075.177-.19.177-.111 0-.186-.073-.186-.168zm.037.317h.304v1.047h-.304v-1.047zM58.528 32.141v.28c-.025-.003-.044-.003-.067-.003-.167 0-.278.093-.278.291v.496h-.304v-1.047h.29v.137c.075-.1.198-.154.36-.154zM58.61 33.107l.1-.218c.092.061.234.1.362.1.14 0 .192-.036.192-.095 0-.17-.63.003-.63-.414 0-.199.179-.339.483-.339.145 0 .303.034.4.093l-.1.215a.597.597 0 0 0-.3-.078c-.137 0-.195.042-.195.098 0 .179.63.005.63.42 0 .196-.182.333-.494.333a.89.89 0 0 1-.449-.115zM60.412 33.155a.428.428 0 0 1-.245.067c-.245 0-.39-.126-.39-.375v-.432h-.162v-.232h.162v-.255h.304v.255h.259v.232h-.26v.426c0 .09.048.137.132.137.044 0 .089-.014.122-.039l.078.216z" fill="#263238"/>
    <path d="m68.72 31.637-.237.314v.005l.376-.05v.17l-.376-.044v.006l.24.3-.157.089-.15-.35h-.006l-.161.352-.142-.09.236-.304v-.006l-.367.048v-.171l.365.047v-.005l-.234-.308.15-.087.153.347h.006l.15-.35.154.087z" fill="#FF725E"/>
    <path d="M57.999 84.277v.504h-.206v-.507l-.577-.949h.223l.462.767.466-.767h.206l-.574.952zM58.531 84.23c0-.328.243-.563.572-.563.328 0 .568.232.568.563 0 .327-.24.562-.569.562a.549.549 0 0 1-.57-.562zm.94 0c0-.236-.16-.387-.368-.387-.212 0-.371.151-.371.387 0 .235.159.389.37.389.212 0 .368-.154.368-.39zM60.97 83.678v1.103h-.19v-.165a.445.445 0 0 1-.373.18c-.285 0-.471-.158-.471-.482v-.636h.197v.61c0 .216.11.325.296.325.206 0 .34-.129.34-.367v-.57h.2v.002zM61.94 83.667v.193c-.017-.003-.031-.003-.045-.003-.215 0-.346.132-.346.373v.548h-.197v-1.103h.189v.185c.07-.126.206-.193.399-.193zM64.032 83.325v1.456h-.17l-.87-1.086v1.086h-.206v-1.456h.17l.87 1.087v-1.087h.206zM65.308 84.115v.666h-.19v-.145c-.066.1-.189.16-.359.16-.248 0-.406-.135-.406-.326 0-.176.114-.322.44-.322h.315v-.039c0-.168-.098-.266-.296-.266a.556.556 0 0 0-.348.118l-.084-.151a.726.726 0 0 1 .455-.14c.303-.003.473.142.473.445zm-.198.328v-.154h-.306c-.198 0-.254.078-.254.17 0 .11.092.18.243.18.15 0 .267-.068.317-.197zM67.498 84.145v.636h-.197v-.61c0-.216-.104-.322-.285-.322-.198 0-.329.126-.329.367v.568h-.197v-.61c0-.216-.103-.323-.285-.323-.198 0-.328.127-.328.367v.569h-.198v-1.104h.19v.166c.077-.112.214-.174.378-.174.167 0 .31.067.382.204a.494.494 0 0 1 .423-.204c.265-.008.446.146.446.47zM68.861 84.297h-.892c.025.193.181.322.399.322a.412.412 0 0 0 .318-.135l.108.13c-.1.117-.25.178-.432.178-.354 0-.59-.235-.59-.562a.54.54 0 0 1 .551-.563c.318 0 .544.23.544.568-.003.017-.003.042-.006.062zm-.892-.146h.705a.342.342 0 0 0-.35-.316.344.344 0 0 0-.355.316z" fill="#E0E0E0"/>
    <path d="m66.286 76.3-.237.314v.005l.376-.05v.17l-.376-.044v.006l.24.3-.156.089-.15-.35h-.006l-.162.352-.142-.09.237-.304v-.006l-.368.048v-.171l.365.047v-.005l-.234-.305.15-.087.154.347h.005l.15-.35.154.084zM110.04 76.927l-.237.314v.005l.376-.05v.17l-.376-.044v.006l.24.3-.156.089-.151-.35h-.005l-.162.353-.142-.09.237-.305v-.006l-.368.048v-.17l.365.047v-.006l-.234-.305.15-.087.154.347h.005l.151-.35.153.084z" fill="#FF725E"/>
    <path d="M105.347 84.277v.504h-.206v-.507l-.577-.949h.223l.463.767.465-.767h.207l-.575.952zM105.877 84.23c0-.328.242-.563.571-.563.329 0 .569.232.569.563 0 .327-.24.562-.569.562a.549.549 0 0 1-.571-.562zm.942 0c0-.236-.159-.387-.368-.387-.212 0-.371.151-.371.387 0 .235.159.389.371.389.209 0 .368-.154.368-.39zM108.318 83.678v1.103h-.189v-.165a.447.447 0 0 1-.374.18c-.284 0-.471-.158-.471-.482v-.636h.198v.61c0 .216.109.325.295.325.207 0 .34-.129.34-.367v-.57h.201v.002zM109.288 83.667v.193c-.017-.003-.03-.003-.044-.003-.215 0-.346.132-.346.373v.548h-.198v-1.103h.19v.185c.069-.126.206-.193.398-.193zM111.38 83.325v1.456h-.17l-.869-1.086v1.086h-.206v-1.456h.17l.869 1.087v-1.087h.206zM112.657 84.115v.666h-.19v-.145c-.066.1-.189.16-.359.16-.248 0-.407-.135-.407-.326 0-.176.114-.322.44-.322h.315v-.039c0-.168-.097-.266-.295-.266a.554.554 0 0 0-.348.118l-.084-.151a.726.726 0 0 1 .454-.14c.304-.003.474.142.474.445zm-.201.328v-.154h-.306c-.198 0-.254.078-.254.17 0 .11.092.18.243.18.15 0 .267-.068.317-.197zM114.847 84.145v.636h-.198v-.61c0-.216-.103-.322-.284-.322-.198 0-.329.126-.329.367v.568h-.198v-.61c0-.216-.103-.323-.284-.323-.198 0-.329.127-.329.367v.569h-.198v-1.104h.19v.166c.078-.112.212-.174.379-.174s.309.067.382.204a.492.492 0 0 1 .423-.204c.265-.008.446.146.446.47zM116.207 84.297h-.892c.025.193.181.322.399.322a.41.41 0 0 0 .317-.135l.109.13a.547.547 0 0 1-.432.178c-.354 0-.591-.235-.591-.562a.54.54 0 0 1 .552-.563c.318 0 .543.23.543.568a.46.46 0 0 1-.005.062zm-.889-.146h.705a.342.342 0 0 0-.351-.316.342.342 0 0 0-.354.316z" fill="#E0E0E0"/>
    <path d="M57.503 47.737v.227h-1.087v-1.456h1.059v.227h-.789v.378h.7v.22h-.7v.401h.817v.003zM59.629 47.326v.635h-.26v-.602c0-.199-.091-.294-.247-.294-.17 0-.287.112-.287.333v.563h-.26v-.602c0-.199-.092-.294-.248-.294-.172 0-.287.112-.287.333v.563h-.259V46.85h.245v.142a.456.456 0 0 1 .363-.154c.161 0 .295.062.373.185a.513.513 0 0 1 .415-.185c.265 0 .452.154.452.488zM60.886 47.312v.652h-.245v-.134c-.062.095-.181.15-.349.15-.253 0-.412-.14-.412-.332 0-.185.125-.33.46-.33h.287V47.3c0-.15-.092-.24-.276-.24a.544.544 0 0 0-.335.109l-.1-.19a.767.767 0 0 1 .468-.138c.318-.003.502.151.502.47zm-.26.302v-.129h-.267c-.175 0-.223.067-.223.148 0 .093.078.154.212.154.125 0 .237-.058.279-.173zM61.184 46.514c0-.087.07-.157.164-.157.095 0 .164.064.164.15a.16.16 0 0 1-.164.163c-.095-.003-.164-.07-.164-.157zm.033.338h.26v1.112h-.26v-1.112zM61.816 46.418h.26v1.543h-.26v-1.543z" fill="#263238"/>
    <path d="M57.999 53.967v.504h-.206v-.507l-.577-.949h.223l.462.767.466-.767h.206l-.574.952zM58.531 53.92c0-.328.243-.563.572-.563.328 0 .568.232.568.563 0 .33-.24.562-.569.562a.549.549 0 0 1-.57-.563zm.94 0c0-.236-.16-.387-.368-.387-.212 0-.371.151-.371.386 0 .236.159.39.37.39.212 0 .368-.154.368-.39zM60.97 53.368v1.103h-.19v-.165a.445.445 0 0 1-.373.18c-.285 0-.471-.158-.471-.482v-.636h.197v.61c0 .216.11.325.296.325.206 0 .34-.129.34-.367v-.57h.2v.002zM61.94 53.357v.193c-.017-.003-.031-.003-.045-.003-.215 0-.346.132-.346.373v.548h-.197v-1.103h.189v.185c.07-.126.206-.193.399-.193zM63.837 54.29v.181h-1.05v-1.456h1.022v.182h-.817v.448h.728v.176h-.728v.47h.845v-.002zM65.966 53.836v.635h-.198v-.61c0-.216-.103-.322-.284-.322-.198 0-.329.126-.329.367v.568h-.198v-.61c0-.216-.103-.322-.284-.322-.198 0-.329.125-.329.366v.569h-.197v-1.103h.189v.165c.078-.112.215-.174.379-.174.167 0 .31.067.382.204a.494.494 0 0 1 .423-.204c.265-.008.446.146.446.47zM67.203 53.805v.666h-.19v-.145c-.067.1-.19.156-.36.156-.247 0-.406-.134-.406-.324 0-.177.114-.322.44-.322h.315v-.04c0-.168-.097-.266-.295-.266a.556.556 0 0 0-.348.118l-.084-.151a.728.728 0 0 1 .454-.143c.304.003.474.148.474.45zm-.198.327v-.154h-.306c-.198 0-.254.076-.254.171 0 .11.092.18.242.18s.268-.068.318-.197zM67.538 53.026c0-.072.059-.131.134-.131.078 0 .134.056.134.126a.13.13 0 0 1-.134.134.13.13 0 0 1-.134-.129zm.036.342h.198v1.103h-.198v-1.103zM68.15 52.925h.198v1.543h-.198v-1.543z" fill="#E0E0E0"/>
    <path d="m63.725 46.337-.236.314v.005l.376-.05v.17l-.376-.044v.006l.24.3-.157.089-.15-.35h-.006l-.161.353-.143-.09.237-.305v-.006l-.368.048v-.171l.365.048v-.006l-.234-.305.15-.087.154.347h.006l.15-.35.153.084zM75.042 61.446l-.237.314v.005l.376-.05v.17l-.376-.044v.005l.24.3-.156.09-.15-.35h-.006l-.162.352-.142-.09.237-.304v-.006l-.368.048v-.171l.365.047v-.005l-.234-.305.15-.087.154.347h.005l.15-.35.154.084z" fill="#FF725E"/>
    <path d="M145.492 72.91H56.079c-.836 0-1.514-.681-1.514-1.521v-4.352c0-.84.678-1.52 1.514-1.52h89.413c.836 0 1.513.68 1.513 1.52v4.352c0 .84-.677 1.52-1.513 1.52z" fill="#F5F5F5"/>
    <path d="M104.375 31.25h.27v1.227h.758v.23h-1.028V31.25zM106.526 32.054v.653h-.245v-.135c-.061.096-.181.152-.348.152-.254 0-.412-.14-.412-.334 0-.184.125-.33.459-.33h.287v-.017c0-.151-.092-.24-.276-.24a.544.544 0 0 0-.334.109l-.1-.19a.767.767 0 0 1 .468-.138c.318-.003.501.151.501.47zm-.259.306v-.13H106c-.176 0-.223.068-.223.15 0 .092.078.153.212.153.125-.003.234-.061.278-.173zM106.732 32.595l.101-.199c.097.064.245.11.384.11.165 0 .232-.046.232-.124 0-.213-.683-.011-.683-.456 0-.21.189-.348.488-.348.147 0 .314.037.415.096l-.101.198a.61.61 0 0 0-.317-.084c-.156 0-.232.054-.232.126 0 .224.683.026.683.46 0 .207-.189.344-.501.344-.187.003-.371-.05-.469-.123zM108.588 32.645a.401.401 0 0 1-.248.076c-.242 0-.382-.13-.382-.376v-.534h-.181v-.208h.181v-.254h.26v.254h.295v.208h-.295v.529c0 .109.053.165.153.165a.235.235 0 0 0 .145-.045l.072.185zM110.687 31.25v1.457h-.22l-.8-.986v.986h-.268V31.25h.221l.799.985v-.985h.268zM111.977 32.054v.653h-.246v-.135c-.061.096-.181.152-.348.152-.253 0-.412-.14-.412-.334 0-.184.125-.33.46-.33h.287v-.017c0-.151-.092-.24-.276-.24a.545.545 0 0 0-.335.109l-.1-.19a.767.767 0 0 1 .468-.138c.318-.003.502.151.502.47zm-.259.306v-.13h-.268c-.176 0-.223.068-.223.15 0 .092.078.153.212.153.128-.003.237-.061.279-.173zM114.159 32.068v.636h-.259v-.602c0-.199-.092-.294-.248-.294-.17 0-.287.112-.287.333v.563h-.259v-.602c0-.199-.092-.294-.248-.294-.173 0-.287.112-.287.333v.563h-.259v-1.112h.245v.143a.455.455 0 0 1 .362-.154c.162 0 .295.062.373.185a.515.515 0 0 1 .416-.185c.264 0 .451.154.451.487zM115.538 32.233h-.867c.031.163.165.267.36.267.125 0 .22-.04.301-.12l.139.159c-.1.117-.253.182-.446.182-.37 0-.61-.238-.61-.571 0-.33.242-.569.571-.569.324 0 .56.227.56.574a.394.394 0 0 0-.008.078zm-.872-.173h.627a.302.302 0 0 0-.312-.272.31.31 0 0 0-.315.272z" fill="#263238"/>
    <path d="M106.935 39.023v.505h-.206v-.507l-.577-.95h.223l.463.768.465-.767h.206l-.574.951zM107.468 38.976c0-.328.242-.563.571-.563.329 0 .569.233.569.563 0 .33-.24.563-.569.563a.547.547 0 0 1-.571-.563zm.939 0c0-.235-.159-.386-.368-.386-.212 0-.371.15-.371.386 0 .235.159.39.371.39s.368-.155.368-.39zM109.906 38.424v1.104h-.19v-.166a.444.444 0 0 1-.373.18c-.284 0-.471-.157-.471-.482v-.636h.198v.61c0 .216.109.326.295.326.207 0 .34-.13.34-.367v-.571h.201v.002zM110.876 38.413v.193c-.017-.003-.031-.003-.045-.003-.214 0-.345.132-.345.373v.549h-.198v-1.103h.19v.184c.069-.126.206-.193.398-.193zM112.968 38.072v1.456h-.17l-.869-1.087v1.087h-.206v-1.456h.17l.869 1.086V38.07h.206zM114.245 38.861v.667h-.19v-.146c-.066.1-.189.157-.359.157-.248 0-.407-.135-.407-.325 0-.176.114-.322.44-.322h.315v-.04c0-.167-.097-.265-.295-.265a.554.554 0 0 0-.348.117l-.084-.15a.728.728 0 0 1 .454-.144c.304.003.474.149.474.451zm-.198.33v-.153h-.306c-.198 0-.254.075-.254.17 0 .11.092.18.242.18.151-.003.268-.07.318-.196zM116.438 38.892v.636h-.198v-.61c0-.216-.103-.323-.284-.323-.198 0-.329.126-.329.367v.568h-.198v-.61c0-.216-.103-.322-.284-.322-.198 0-.329.126-.329.367v.568h-.198V38.43h.19v.165c.078-.112.211-.173.379-.173.167 0 .309.067.381.204a.495.495 0 0 1 .424-.204c.262-.009.446.145.446.47zM117.798 39.043h-.892c.025.193.181.322.398.322a.411.411 0 0 0 .318-.134l.109.128a.549.549 0 0 1-.432.18c-.354 0-.591-.236-.591-.563a.54.54 0 0 1 .552-.563c.317 0 .543.23.543.569-.003.016-.003.041-.005.061zm-.892-.143h.705a.342.342 0 0 0-.351-.316.346.346 0 0 0-.354.316z" fill="#E0E0E0"/>
    <path d="m116.959 31.08-.237.314v.005l.376-.05v.17l-.376-.044v.005l.24.3-.156.09-.151-.35h-.005l-.162.352-.142-.09.237-.305v-.005l-.368.047v-.17l.365.047v-.005l-.234-.306.15-.086.154.347h.005l.151-.35.153.084z" fill="#FF725E"/>
    <path d="M55.684 62.174c0-.434.331-.748.777-.748.237 0 .44.084.574.244l-.173.165a.509.509 0 0 0-.387-.17.497.497 0 0 0-.518.512c0 .3.217.512.518.512.15 0 .282-.056.387-.173l.173.165a.738.738 0 0 1-.577.244c-.443 0-.774-.314-.774-.75zM57.136 62.348c0-.334.248-.569.588-.569.343 0 .59.235.59.569 0 .333-.245.57-.59.57-.34 0-.588-.237-.588-.57zm.917 0c0-.213-.143-.347-.33-.347-.186 0-.325.134-.325.347 0 .212.142.347.326.347.186 0 .329-.135.329-.347zM59.652 62.267v.635h-.26V62.3c0-.199-.097-.294-.261-.294-.184 0-.31.112-.31.336v.563h-.258v-1.112h.245v.143c.083-.1.22-.157.382-.157.264 0 .462.154.462.487zM60.647 62.843a.402.402 0 0 1-.248.076c-.243 0-.382-.129-.382-.375v-.535h-.181v-.207h.181v-.255h.26v.255h.295v.207h-.296v.53c0 .108.053.164.153.164a.235.235 0 0 0 .145-.045l.073.185zM61.786 62.252v.653h-.245v-.135c-.061.096-.181.152-.348.152-.254 0-.413-.14-.413-.334 0-.184.126-.33.46-.33h.287v-.017c0-.151-.092-.24-.276-.24a.544.544 0 0 0-.334.109l-.1-.19a.767.767 0 0 1 .468-.138c.317-.003.501.151.501.47zm-.259.303v-.129h-.267c-.176 0-.223.067-.223.148 0 .093.078.154.211.154.126 0 .235-.058.28-.173zM62.037 62.348c0-.334.248-.569.6-.569.214 0 .387.09.47.258l-.198.117a.311.311 0 0 0-.276-.154c-.189 0-.334.135-.334.348 0 .215.145.347.334.347a.315.315 0 0 0 .276-.154l.198.117c-.083.166-.256.26-.47.26-.352 0-.6-.237-.6-.57zM64.01 62.843a.403.403 0 0 1-.248.076c-.242 0-.382-.129-.382-.375v-.535h-.18v-.207h.18v-.255h.26v.255h.295v.207h-.296v.53c0 .108.053.164.154.164a.235.235 0 0 0 .145-.045l.072.185zM66.435 61.446v1.456h-.223l-.8-.986v.986h-.268v-1.456h.22l.8.986v-.986h.27zM67.87 61.793v1.112h-.246v-.143a.458.458 0 0 1-.356.157c-.285 0-.477-.157-.477-.49v-.636h.26v.6c0 .201.094.296.258.296.181 0 .301-.112.301-.336v-.563h.26v.003zM70.06 62.267v.635h-.259V62.3c0-.199-.092-.294-.248-.294-.17 0-.287.112-.287.333v.563h-.259V62.3c0-.199-.092-.294-.248-.294-.173 0-.287.112-.287.333v.563h-.26v-1.111h.246v.142a.456.456 0 0 1 .362-.154c.162 0 .296.062.374.185a.513.513 0 0 1 .415-.185c.265 0 .451.154.451.487zM71.568 62.348c0 .344-.237.57-.56.57a.468.468 0 0 1-.368-.156v.143h-.246v-1.543h.26v.569c.089-.101.214-.149.354-.149.32-.003.56.221.56.566zm-.265 0c0-.213-.142-.347-.326-.347-.187 0-.329.134-.329.347 0 .212.142.347.329.347.187 0 .326-.135.326-.347zM72.85 62.432h-.867c.03.162.164.266.36.266.125 0 .22-.04.3-.12l.14.159c-.1.117-.254.182-.446.182-.37 0-.61-.238-.61-.571 0-.33.242-.569.57-.569.324 0 .56.227.56.574-.005.023-.005.053-.007.079zm-.87-.174h.627a.301.301 0 0 0-.312-.272.308.308 0 0 0-.315.272zM73.742 61.78v.246c-.023-.006-.042-.006-.062-.006-.198 0-.32.118-.32.344v.538h-.26v-1.111h.246v.162c.078-.115.212-.174.395-.174zM57.355 77.59h-.724l-.142.337h-.279l.652-1.456h.265l.655 1.456H57.5l-.145-.336zm-.089-.212-.273-.636-.27.636h.543zM59.016 76.384v1.543h-.248v-.143a.452.452 0 0 1-.368.157c-.32 0-.56-.224-.56-.572 0-.347.237-.568.56-.568.142 0 .27.048.357.151v-.57h.259v.002zm-.257.988c0-.213-.142-.347-.328-.347-.187 0-.33.134-.33.347 0 .213.143.347.33.347.186 0 .328-.134.328-.347zM60.44 76.384v1.543h-.248v-.143a.452.452 0 0 1-.368.157c-.32 0-.56-.224-.56-.572 0-.347.236-.568.56-.568.142 0 .27.048.357.151v-.57h.259v.002zm-.257.988c0-.213-.142-.347-.329-.347-.186 0-.328.134-.328.347 0 .213.142.347.328.347.187 0 .33-.134.33-.347zM61.418 76.804v.246c-.022-.002-.041-.005-.061-.005-.198 0-.32.117-.32.344v.538h-.26v-1.112h.246v.163c.078-.115.211-.174.395-.174zM62.664 77.456h-.867c.031.163.165.266.36.266.125 0 .223-.039.3-.12l.14.16c-.1.117-.253.182-.446.182-.37 0-.61-.238-.61-.572 0-.33.242-.568.571-.568.323 0 .56.227.56.574-.005.022-.005.053-.008.078zm-.87-.173h.628a.301.301 0 0 0-.313-.272.31.31 0 0 0-.314.272zM62.792 77.817l.1-.198c.098.064.245.109.385.109.164 0 .231-.045.231-.123 0-.213-.683-.012-.683-.457 0-.21.19-.347.488-.347a.9.9 0 0 1 .415.095l-.1.199a.615.615 0 0 0-.318-.084c-.156 0-.231.053-.231.126 0 .224.683.025.683.46 0 .206-.19.344-.502.344a.848.848 0 0 1-.468-.124zM63.856 77.817l.1-.198c.098.064.246.109.385.109.165 0 .232-.045.232-.123 0-.213-.683-.012-.683-.457 0-.21.19-.347.488-.347.147 0 .314.036.415.095l-.1.199a.614.614 0 0 0-.318-.084c-.156 0-.231.053-.231.126 0 .224.682.025.682.46 0 .206-.19.344-.501.344a.862.862 0 0 1-.469-.124z" fill="#263238"/>
    <path d="m58.272 99.63.605.341-.156.28-.613-.361.005.694h-.304l.006-.694-.613.361-.156-.28.607-.341-.607-.336.156-.286.613.361-.006-.689h.304l-.005.69.613-.362.156.286-.605.336zM60.4 99.63l.606.341-.156.28-.614-.361.006.694h-.304l.006-.694-.613.361-.156-.28.607-.341-.607-.336.156-.286.613.361-.006-.689h.304l-.005.69.613-.362.156.286-.605.336zM62.53 99.63l.605.341-.157.28-.613-.361.006.694h-.304l.006-.694-.613.361-.156-.28.607-.341-.607-.336.156-.286.613.361-.006-.689h.304l-.006.69.613-.362.157.286-.605.336zM64.659 99.63l.604.341-.156.28-.613-.361.006.694h-.304l.006-.694-.613.361-.156-.28.607-.341-.607-.336.156-.286.613.361-.006-.689h.304l-.006.69.613-.362.156.286-.604.336zM66.791 99.63l.605.341-.156.28-.613-.361.005.694h-.309l.006-.694-.613.361-.156-.28.607-.341-.607-.336.156-.286.613.361-.006-.689h.304l-.006.69.613-.362.156.286-.599.336zM68.92 99.63l.604.341-.156.28-.613-.361.006.694h-.304l.006-.694-.614.361-.156-.28.608-.341-.608-.336.156-.286.614.361-.006-.689h.304l-.006.69.613-.362.156.286-.605.336zM71.048 99.63l.605.341-.156.28-.613-.361.006.694h-.304l.005-.694-.613.361-.156-.28.608-.341-.608-.336.156-.286.613.361-.005-.689h.304l-.006.69.613-.362.156.286-.605.336z" fill="#E0E0E0"/>
    <path d="m103.311 78.411.092-.21c.117.093.3.16.479.16.226 0 .32-.082.32-.19 0-.314-.861-.11-.861-.65 0-.236.187-.434.585-.434.173 0 .357.044.482.129l-.083.21a.789.789 0 0 0-.399-.115c-.223 0-.314.086-.314.198 0 .311.858.11.858.644 0 .233-.19.434-.585.434-.229-.002-.455-.072-.574-.176zM105.375 78.503a.401.401 0 0 1-.248.076c-.242 0-.381-.129-.381-.375v-.535h-.182v-.207h.182v-.255h.259v.255h.295v.207h-.295v.53c0 .108.053.164.153.164a.235.235 0 0 0 .145-.044l.072.184zM106.515 77.913v.652h-.245v-.134c-.062.095-.182.151-.349.151-.253 0-.412-.14-.412-.333 0-.185.125-.33.46-.33h.287v-.017c0-.152-.092-.241-.276-.241a.545.545 0 0 0-.335.109l-.1-.19a.767.767 0 0 1 .468-.138c.315 0 .502.152.502.47zm-.259.305v-.129h-.268c-.175 0-.223.067-.223.149 0 .092.078.154.212.154.125 0 .234-.06.279-.174zM107.51 78.503a.401.401 0 0 1-.248.076c-.242 0-.382-.129-.382-.375v-.535h-.181v-.207h.181v-.255h.26v.255h.295v.207h-.295v.53c0 .108.052.164.153.164a.235.235 0 0 0 .145-.044l.072.184zM108.723 78.092h-.867c.031.162.164.266.359.266.126 0 .221-.04.301-.12l.14.159c-.101.118-.254.182-.446.182-.371 0-.61-.238-.61-.571 0-.33.242-.569.571-.569.323 0 .56.227.56.574a1.618 1.618 0 0 0-.008.079zm-.87-.17h.627a.3.3 0 0 0-.312-.272c-.167 0-.29.109-.315.271zM56.998 92.904c0 .32-.236.518-.615.518h-.327v.42h-.27v-1.456h.596c.382 0 .616.196.616.518zm-.27 0c0-.182-.123-.288-.36-.288h-.314v.58h.314c.237-.004.36-.11.36-.292zM58.16 93.192v.653h-.245v-.135c-.061.096-.181.152-.348.152-.254 0-.413-.14-.413-.334 0-.184.126-.33.46-.33h.287v-.017c0-.151-.092-.24-.276-.24a.544.544 0 0 0-.334.109l-.1-.19a.767.767 0 0 1 .468-.138c.317-.003.501.148.501.47zm-.259.303v-.129h-.267c-.176 0-.223.067-.223.148 0 .093.078.154.211.154.126 0 .234-.058.28-.173zM58.366 93.733l.1-.2c.098.065.246.11.385.11.165 0 .231-.045.231-.123 0-.213-.682-.011-.682-.456 0-.21.19-.348.487-.348a.9.9 0 0 1 .416.096l-.1.198a.615.615 0 0 0-.319-.084c-.156 0-.23.053-.23.126 0 .224.682.025.682.46 0 .207-.19.344-.502.344-.186 0-.37-.053-.468-.123zM59.43 93.733l.101-.2c.098.065.245.11.385.11.164 0 .23-.045.23-.123 0-.213-.682-.011-.682-.456 0-.21.19-.348.488-.348a.9.9 0 0 1 .415.096l-.1.198a.615.615 0 0 0-.318-.084c-.156 0-.231.053-.231.126 0 .224.682.025.682.46 0 .207-.19.344-.501.344a.886.886 0 0 1-.468-.123zM62.329 92.73l-.407 1.112h-.248l-.287-.764-.29.764h-.248l-.407-1.111h.246l.292.82.304-.82h.217l.299.823.3-.823h.229zM62.385 93.288c0-.334.248-.569.588-.569.343 0 .59.235.59.569 0 .333-.245.57-.59.57-.337-.002-.588-.237-.588-.57zm.92 0c0-.213-.143-.348-.33-.348-.186 0-.325.135-.325.348 0 .213.142.347.325.347.187 0 .33-.135.33-.347zM64.453 92.72v.246c-.023-.003-.042-.006-.062-.006-.198 0-.32.118-.32.344v.538h-.256V92.73h.245v.163c.075-.115.209-.174.393-.174zM65.745 92.3v1.542h-.248v-.143a.452.452 0 0 1-.368.157c-.32 0-.56-.224-.56-.571s.237-.569.56-.569c.143 0 .27.048.357.152v-.572h.26v.003zm-.253.988c0-.213-.142-.348-.33-.348-.186 0-.328.135-.328.348 0 .212.142.347.329.347.184 0 .329-.135.329-.347z" fill="#263238"/>
    <path d="M140.358 103.368c0-.012.156.002.435-.079.265-.087.686-.311.914-.817.123-.252.142-.555.131-.896-.003-.339-.003-.709-.005-1.106-.003-.796-.006-1.697-.012-2.694 0-.252.009-.501-.078-.742a1.453 1.453 0 0 0-1.131-.974c-.265-.042-.56-.014-.85-.023-1.168.003-2.416.006-3.729.006-2.627.003-5.514.003-8.543.005-.363 0-.717.14-.979.387a1.461 1.461 0 0 0-.457.935c-.013.728-.002 1.47-.008 2.184 0 .717 0 1.422-.003 2.114-.014.344.039.669.218.946.167.275.429.488.724.597.293.123.616.087.939.092.321 0 .636 0 .948.003.621 0 1.226.003 1.811.003l3.249.008 4.704.023c.549.005.978.011 1.279.014a14.916 14.916 0 0 1 .443.014.778.778 0 0 1-.114.008c-.081.003-.192.003-.331.008-.301.003-.731.009-1.28.014l-4.703.023-3.25.008c-.585 0-1.187.003-1.811.003-.312 0-.627 0-.948.003-.161 0-.317.003-.484-.003a1.572 1.572 0 0 1-1.291-.748c-.195-.294-.256-.674-.239-1.019 0-.691 0-1.397-.003-2.114.003-.72-.008-1.442.006-2.198.033-.386.214-.761.501-1.03.287-.269.68-.426 1.076-.426 3.032.003 5.919.003 8.544.006 1.312.003 2.561.005 3.728.005.293.009.574-.016.87.028a1.575 1.575 0 0 1 1.212 1.056c.092.258.078.53.078.776-.003.996-.008 1.898-.011 2.693-.003.395-.003.765-.006 1.106.009.336-.017.667-.147.921a1.538 1.538 0 0 1-.956.824c-.285.078-.441.056-.441.056z" fill="#FFCA7A"/>
    <path d="M128.925 99.778c0-.46.351-.79.825-.79.262 0 .482.096.627.272l-.226.21a.492.492 0 0 0-.382-.18.47.47 0 0 0-.488.49c0 .289.201.491.488.491a.48.48 0 0 0 .382-.182l.226.21c-.142.176-.363.272-.627.272-.474-.003-.825-.334-.825-.793zM130.46 99.954c0-.352.273-.604.644-.604.37 0 .641.252.641.604 0 .353-.271.605-.641.605-.371 0-.644-.252-.644-.605zm.942 0c0-.201-.128-.324-.298-.324-.17 0-.301.123-.301.324 0 .205.131.325.301.325.17 0 .298-.123.298-.325zM133.166 99.87v.672h-.34v-.618c0-.19-.086-.278-.237-.278-.161 0-.281.101-.281.317v.579h-.34v-1.176h.323v.138a.511.511 0 0 1 .387-.154c.279 0 .488.162.488.52zM134.225 100.484a.489.489 0 0 1-.276.075c-.276 0-.438-.142-.438-.42v-.481h-.181v-.264h.181v-.285h.34v.285h.29v.264h-.29v.478c0 .101.056.154.145.154.05 0 .1-.014.137-.044l.092.238zM134.376 99.014c0-.107.084-.19.212-.19.125 0 .212.078.212.184 0 .115-.084.196-.212.196s-.212-.084-.212-.19zm.042.352h.34v1.176h-.34v-1.176zM136.265 99.87v.672h-.34v-.618c0-.19-.087-.278-.237-.278-.162 0-.282.101-.282.317v.579h-.34v-1.176h.324v.138a.51.51 0 0 1 .387-.154c.279 0 .488.162.488.52zM137.747 99.367v1.175h-.32v-.14a.47.47 0 0 1-.363.157c-.292 0-.499-.165-.499-.529v-.663h.34v.613c0 .196.087.282.237.282.156 0 .271-.1.271-.316v-.58h.334zM139.202 100.05h-.884c.034.145.157.235.335.235a.384.384 0 0 0 .292-.115l.182.196c-.109.123-.271.19-.482.19-.405 0-.666-.254-.666-.604s.267-.605.624-.605c.343 0 .607.232.607.608l-.008.095zm-.889-.2h.577a.278.278 0 0 0-.287-.243.277.277 0 0 0-.29.244zM121.641 103.368h-12.872a1.517 1.517 0 0 1-1.513-1.521v-4.351c0-.84.677-1.52 1.513-1.52h12.872c.836 0 1.513.68 1.513 1.52v4.351c0 .84-.68 1.521-1.513 1.521z" fill="#FFCA7A"/>
    <path d="m112.617 100.391.12-.266c.128.095.32.16.502.16.209 0 .292-.07.292-.163 0-.285-.883-.089-.883-.658 0-.26.209-.476.641-.476a1 1 0 0 1 .526.135l-.108.268a.854.854 0 0 0-.421-.12c-.209 0-.29.079-.29.174 0 .283.884.087.884.649 0 .255-.212.473-.647.473-.24 0-.482-.072-.616-.176zM115.133 99.87v.67h-.317v-.146c-.064.106-.184.165-.357.165-.273 0-.438-.154-.438-.355 0-.208.145-.35.502-.35h.27c0-.146-.086-.233-.27-.233a.569.569 0 0 0-.337.11l-.123-.239a.893.893 0 0 1 .505-.142c.359 0 .565.165.565.52zm-.34.3v-.12h-.231c-.159 0-.209.058-.209.137 0 .084.073.143.192.143.112 0 .209-.054.248-.16zM116.577 99.366l-.493 1.176h-.348l-.491-1.176h.351l.324.798.334-.798h.323zM117.823 100.049h-.883c.033.146.156.236.334.236a.392.392 0 0 0 .293-.115l.181.196c-.109.123-.271.19-.482.19-.404 0-.666-.255-.666-.605s.267-.604.624-.604c.343 0 .607.232.607.607-.002.031-.008.067-.008.095zm-.889-.198h.577a.278.278 0 0 0-.287-.244c-.156 0-.268.093-.29.244z" fill="#fff"/>
    <path d="M58.475 69.485v.504h-.206v-.507l-.577-.95h.223l.463.768.465-.767h.206l-.574.952zM59.008 69.437c0-.328.242-.563.571-.563.329 0 .569.233.569.563 0 .328-.24.563-.569.563a.549.549 0 0 1-.571-.563zm.939 0c0-.235-.156-.386-.368-.386s-.37.15-.37.386c0 .235.158.39.37.39s.368-.155.368-.39zM61.446 68.886v1.103h-.19v-.165a.445.445 0 0 1-.373.179c-.284 0-.47-.157-.47-.482v-.635h.197v.61c0 .216.109.325.295.325.207 0 .34-.129.34-.367v-.571h.201v.003zM62.416 68.874v.194c-.017-.003-.03-.003-.044-.003-.215 0-.346.131-.346.372v.549h-.198v-1.103h.19v.184c.07-.125.206-.193.398-.193zM64.508 68.533v1.456h-.17l-.87-1.087v1.087h-.205v-1.456h.17l.87 1.086v-1.086h.205zM65.938 68.886v1.103h-.19v-.165a.445.445 0 0 1-.373.179c-.284 0-.47-.157-.47-.482v-.635h.197v.61c0 .216.109.325.295.325.207 0 .34-.129.34-.367v-.571h.201v.003zM68.14 69.353v.636h-.198v-.61c0-.216-.103-.323-.284-.323-.198 0-.329.126-.329.367v.569h-.198v-.61c0-.217-.103-.323-.284-.323-.198 0-.329.126-.329.367v.568h-.198v-1.103h.19v.165c.078-.112.214-.173.379-.173.167 0 .31.067.382.204a.494.494 0 0 1 .423-.204c.265-.009.446.145.446.47zM69.644 69.437c0 .336-.234.563-.555.563a.458.458 0 0 1-.39-.188v.174h-.19v-1.543h.199v.608a.47.47 0 0 1 .381-.177c.32 0 .555.227.555.563zm-.2 0c0-.235-.16-.386-.371-.386-.21 0-.368.15-.368.386 0 .235.159.39.368.39.212 0 .37-.155.37-.39zM70.91 69.504h-.892c.025.194.181.322.399.322a.412.412 0 0 0 .317-.134l.109.129c-.1.117-.25.179-.432.179-.354 0-.59-.235-.59-.563a.54.54 0 0 1 .551-.563c.318 0 .543.23.543.569a.42.42 0 0 0-.005.061zm-.892-.145h.705a.342.342 0 0 0-.35-.317.346.346 0 0 0-.355.317zM71.78 68.874v.194c-.017-.003-.031-.003-.045-.003-.215 0-.346.131-.346.372v.549h-.198v-1.103h.19v.184c.07-.125.206-.193.398-.193z" fill="#E0E0E0"/>
    <path d="M159.657 20.118H45.972v6.992h113.685v-6.992z" fill="#FFCA7A"/>
    <path d="M52.755 23.273v.462h.805v.325h-.805v.639h-.404v-1.75h1.315v.324h-.911zM53.813 23.822c0-.52.404-.904.953-.904.547 0 .954.384.954.904 0 .524-.404.905-.953.905-.55 0-.954-.384-.954-.905zm1.5 0c0-.333-.234-.56-.544-.56-.312 0-.546.227-.546.56 0 .334.234.56.546.56.31 0 .544-.226.544-.56zM57.13 24.699l-.338-.488h-.37v.488h-.404v-1.75h.755c.465 0 .755.243.755.635a.566.566 0 0 1-.36.552l.39.563h-.428zm-.377-1.42h-.329v.61h.33c.245 0 .37-.114.37-.305 0-.193-.126-.305-.37-.305zM59.434 24.699l-.002-1.05-.513.865h-.181l-.51-.843V24.7h-.38v-1.75h.335l.652 1.086.641-1.086h.332l.005 1.75h-.379z" fill="#fff"/>
    <path d="m159.623 20.297-113.57.006.064-.065-.04 89.203v.008l-.072-.073 113.571.073-.062.062c.067-53.853.109-88.713.109-89.214l.014 89.211v.061h-.061l-113.57-.047h-.073V109.441c.02-32.161.039-62.578.053-89.203v-.064h.064c67.429.07 113.002.12 113.573.123zM46.687 116.62H26.205v2.828h20.482v-2.828z" fill="#263238"/>
    <path d="M46.723 119.481H26.17v-2.898h20.554v2.898zm-20.484-.07H46.65v-2.758H26.239v2.758z" fill="#263238"/>
    <path d="m28.104 118.504 2.948 14.616h10.91l2.85-13.672-16.708-.944z" fill="#263238"/>
    <path d="m28.104 131.737 1.571 2.173h13.262l1.875-2.173H28.104z" fill="#455A64"/>
    <path d="M35.678 118.933c-.04 0-.092-6.771-.115-15.12-.022-8.353-.008-15.123.031-15.123s.092 6.77.114 15.123c.023 8.349.009 15.12-.03 15.12zM40.24 101.987a.596.596 0 0 1-.056.157c-.047.115-.109.26-.184.439-.042.096-.087.202-.134.317-.042.12-.089.246-.136.383l-.16.44c-.055.157-.097.328-.15.504-.223.703-.401 1.562-.574 2.52a31.035 31.035 0 0 0-.317 3.15c-.1 2.248.027 4.287.161 5.757.067.733.131 1.33.181 1.739.023.193.04.35.053.473a.614.614 0 0 1 .009.165.75.75 0 0 1-.037-.162l-.078-.471a34.528 34.528 0 0 1-.228-1.736 38.033 38.033 0 0 1-.206-5.773c.055-1.129.172-2.201.331-3.167.179-.963.368-1.826.608-2.529.058-.176.103-.347.161-.501l.17-.439.148-.381c.05-.115.103-.219.145-.311.084-.174.153-.316.209-.428.053-.098.08-.146.084-.146z" fill="#263238"/>
    <path d="M39.715 96.513c.006.003-.017.079-.064.224l-.215.63-.156.454-.164.546c-.12.392-.26.837-.382 1.338-.067.25-.134.51-.206.784l-.192.857c-.142.588-.246 1.229-.38 1.898a57.39 57.39 0 0 0-.562 4.399 66.176 66.176 0 0 0-.206 4.433 67.173 67.173 0 0 0 .07 3.623c.016.515.05.983.077 1.391.023.409.05.762.075 1.05.023.278.04.499.05.664.012.151.014.232.009.232a1.4 1.4 0 0 1-.036-.229l-.078-.661a25.04 25.04 0 0 1-.1-1.047c-.034-.409-.076-.877-.101-1.392a57.501 57.501 0 0 1-.1-3.631c.01-1.367.064-2.87.195-4.444.136-1.574.34-3.063.574-4.41.136-.669.245-1.31.393-1.901l.2-.857c.076-.272.148-.532.215-.784.13-.501.276-.946.404-1.336.064-.193.123-.375.176-.543.06-.162.117-.313.17-.45l.24-.622c.058-.146.091-.219.094-.216zM34.382 120.131c-.003 0-.006-.028-.011-.078l-.02-.233a99.987 99.987 0 0 0-.061-.896l-.206-3.298c-.179-2.783-.435-6.631-.9-10.861-.24-2.114-.516-4.125-.803-5.945-.153-.91-.29-1.775-.449-2.578a72.325 72.325 0 0 0-.443-2.238c-.134-.683-.284-1.296-.404-1.837a50.53 50.53 0 0 0-.329-1.383l-.212-.873-.053-.227c-.01-.05-.014-.078-.014-.078.003 0 .012.025.028.075l.067.224c.059.207.137.498.24.865.103.376.228.838.354 1.378.128.54.287 1.15.426 1.834.15.68.312 1.428.46 2.237.162.804.306 1.669.463 2.579.295 1.823.576 3.833.813 5.95.466 4.233.708 8.083.859 10.869.075 1.395.128 2.523.158 3.302l.034.898.005.233c0 .053 0 .081-.002.081z" fill="#263238"/>
    <path d="M35.51 91.943c-.089-.96-1.053-1.682-2.011-1.694-.96-.01-1.854.569-2.439 1.33-.585.762-.908 1.694-1.173 2.618-.646 2.26-.998 4.634-.722 6.97.276 2.335 1.218 4.634 2.887 6.283.27.269.622.537.995.456.204-.045.37-.185.524-.325 3.274-2.973 5.166-7.425 5.038-11.858-.025-.887-.142-1.811-.632-2.55-.494-.742-1.633-1.526-2.466-1.23zM28.351 84.26 27 86.72c-.031.056-.073.12-.14.126-.07.005-.122-.062-.161-.12l-3.57-5.505.822-.468 4.4 3.508z" fill="#388F7B"/>
    <path d="m35.591 88.687-12.178-7.221c-.125-.073-.259-.16-.295-.3-.047-.182.087-.355.218-.49 1.674-1.736 4.107-2.74 6.506-2.57 2.4.174 4.71 1.568 5.883 3.676 1.176 2.112 1.215 4.903-.134 6.905z" fill="#52BEA3"/>
    <path d="M25.169 79.164a.67.67 0 0 1 .159-.02c.106-.005.259-.024.46-.022.4-.01.98.017 1.688.135a9.976 9.976 0 0 1 4.99 2.416 10.047 10.047 0 0 1 2.894 4.749c.187.697.273 1.274.3 1.677.023.199.015.252.02.356a.579.579 0 0 1-.094.266c-.014 0 .066-.221.019-.619a10.28 10.28 0 0 0-.345-1.655 10.24 10.24 0 0 0-2.893-4.667 10.186 10.186 0 0 0-4.91-2.425c-.7-.129-1.274-.171-1.672-.18-.393-.005-.616 0-.616-.01z" fill="#263238"/>
    <path d="M33.944 83.706c.006.02-.228.129-.616.28a26.041 26.041 0 0 1-3.104.991c-.404.101-.66.146-.663.126-.006-.02.24-.103.635-.227l1.552-.487 1.547-.501c.395-.129.64-.202.65-.182zM32.027 78.529c.039-.003.125.607.145 1.363.02.76-.037 1.372-.076 1.372-.041-.002-.05-.613-.07-1.366-.019-.753-.041-1.366 0-1.37zM23.308 81.332c-.006-.02.331-.143.883-.314a38.217 38.217 0 0 1 4.395-1.064c.57-.1.925-.146.928-.126.002.02-.346.1-.909.227-.563.126-1.343.302-2.198.51-.856.207-1.63.408-2.188.554-.557.145-.906.232-.911.213z" fill="#263238"/>
    <path d="M30.455 89.863c-1.048-.798-2.154-.955-3.47-.901-1.312.053-2.59.453-3.795.985-2.053.904-3.985 2.234-5.21 4.122-1.227 1.884-1.653 4.382-.736 6.434.091.204.211.42.415.507.217.092.462.019.688-.053 2.335-.765 4.687-1.537 6.836-2.739 2.148-1.198 4.102-2.864 5.255-5.045.276-.524.508-1.084.552-1.675.048-.59-.117-1.218-.535-1.635z" fill="#52BEA3"/>
    <path d="M30.477 89.614a.801.801 0 0 1-.167.067c-.125.045-.29.101-.49.168l-.354.118c-.128.047-.265.103-.415.162-.296.12-.638.241-1 .417l-.575.264c-.198.092-.395.204-.607.313-.424.21-.853.476-1.307.748a22.753 22.753 0 0 0-2.765 2.06 22.987 22.987 0 0 0-2.388 2.495c-.326.42-.643.812-.903 1.21-.133.196-.27.378-.387.566-.114.187-.226.366-.332.537-.22.339-.381.664-.537.944-.076.14-.15.269-.212.392l-.162.339c-.095.19-.17.344-.228.464a.814.814 0 0 1-.09.16.739.739 0 0 1 .062-.171l.203-.479c.048-.106.098-.221.15-.344.06-.123.132-.255.204-.4.15-.283.307-.616.521-.958l.326-.546c.114-.188.251-.375.382-.574.256-.4.574-.798.897-1.224a22.177 22.177 0 0 1 2.394-2.52 22.034 22.034 0 0 1 2.792-2.066c.46-.269.895-.535 1.324-.74.212-.106.412-.218.613-.307.2-.09.396-.174.58-.255.365-.17.713-.286 1.011-.398.15-.053.29-.109.421-.15a105.756 105.756 0 0 1 .858-.25.717.717 0 0 1 .181-.042zM22.293 94.066c.011.04-1.128.409-2.547.826-1.418.417-2.577.722-2.589.683-.01-.04 1.129-.409 2.547-.826 1.419-.414 2.578-.722 2.59-.683z" fill="#263238"/>
    <path d="M22.19 99.716c-.02 0-.042-.305-.056-.798a34.44 34.44 0 0 1 .005-1.926c.023-.753.062-1.434.104-1.924.041-.492.08-.795.1-.792.02 0 .017.308.003.798l-.059 1.924-.047 1.923c-.017.49-.03.795-.05.795zM27.006 97.25c-.04.002-.168-1.384-.287-3.094-.117-1.711-.182-3.103-.14-3.106.04-.002.167 1.383.287 3.094.117 1.714.179 3.103.14 3.105z" fill="#263238"/>
    <path d="M21.01 90.919c0-.02.313-.028.817-.025.505.002 1.198.02 1.965.044.766.026 1.463.056 1.964.087.502.031.814.059.814.079 0 .02-.312.028-.816.025a78.063 78.063 0 0 1-1.968-.045 73.312 73.312 0 0 1-1.964-.087c-.502-.03-.814-.059-.811-.078zM32.57 107.772a.63.63 0 0 1-.017-.163l-.022-.47a26.368 26.368 0 0 1-.005-1.733c.014-.731.06-1.602.15-2.568.095-.963.231-2.019.43-3.119.2-1.1.442-2.14.693-3.074.257-.935.516-1.77.76-2.462.243-.691.455-1.246.617-1.624.075-.176.136-.322.186-.433a1.27 1.27 0 0 1 .073-.149.617.617 0 0 1-.047.16l-.16.442c-.144.384-.34.94-.568 1.635a42.5 42.5 0 0 0-.727 2.462c-.242.935-.48 1.97-.68 3.066a44.016 44.016 0 0 0-.438 3.107 43.456 43.456 0 0 0-.22 4.284c-.002.191-.005.348-.005.471-.011.112-.014.168-.02.168z" fill="#263238"/>
    <path d="M33.214 99.761c.014.014-.17.222-.485.535-.315.316-.764.739-1.274 1.19-.51.451-.986.84-1.34 1.112-.354.271-.58.428-.59.414-.015-.017.191-.202.526-.493.373-.327.82-.714 1.31-1.142l1.298-1.154c.329-.296.538-.476.555-.462zM37.068 102.88c-.017.012-.212-.266-.518-.719l-1.204-1.764a909.4 909.4 0 0 1-1.229-1.747c-.315-.446-.507-.726-.493-.737.017-.011.237.244.574.675a39.247 39.247 0 0 1 2.435 3.517c.287.467.452.767.435.775zM35.047 93.07c.023.033-1.26.9-2.859 1.934-1.602 1.033-2.917 1.845-2.94 1.811-.022-.033 1.26-.898 2.86-1.934 1.602-1.036 2.917-1.846 2.94-1.812zM38.659 96.984c-.028.028-.895-.776-1.937-1.798s-1.864-1.873-1.834-1.904c.028-.028.895.776 1.937 1.798 1.04 1.024 1.862 1.876 1.834 1.904z" fill="#263238"/>
    <path d="m39.567 96.905 1.098-.092a5.412 5.412 0 0 0 2.221-.683 8.72 8.72 0 0 1 1.034-.521c1.36-.549 2.876-.451 4.339-.524a17.913 17.913 0 0 0 6.9-1.772.667.667 0 0 0 .3-.275c.226-.414-.192-.78-.554-1.005-1.853-1.145-3.737-2.307-5.838-2.875-2.101-.569-4.484-.474-6.275.767-2.104 1.453-2.87 4.44-3.225 6.98z" fill="#388F7B"/>
    <path d="M55.485 92.904a.929.929 0 0 1-.187-.087c-.13-.07-.303-.16-.52-.274-.452-.238-1.104-.59-1.926-.989-.822-.392-1.82-.834-2.98-1.153-1.153-.322-2.485-.49-3.859-.314-1.368.182-2.628.717-3.52 1.518-.897.8-1.446 1.767-1.833 2.587-.387.829-.624 1.532-.797 2.013-.08.23-.145.418-.195.558-.045.125-.072.193-.078.19a.903.903 0 0 1 .05-.202l.17-.565c.156-.488.379-1.199.758-2.039.379-.831.922-1.82 1.836-2.643.909-.829 2.2-1.378 3.59-1.562 1.396-.18 2.75-.003 3.915.33 1.17.33 2.168.784 2.987 1.19.82.409 1.463.776 1.906 1.03.212.124.38.224.508.3.116.067.175.106.175.112z" fill="#263238"/>
    <path d="M52.843 94.33c-.022.033-1.46-.902-3.21-2.087-1.75-1.187-3.152-2.175-3.13-2.209.023-.034 1.46.902 3.21 2.086 1.753 1.184 3.152 2.176 3.13 2.21zM51.31 89.956c.009.033-.457.14-1.047.19-.588.05-1.068.02-1.068-.014s.474-.059 1.056-.11c.58-.047 1.051-.1 1.06-.066zM45.018 89.132c.033.017-.175.348-.47.74-.296.392-.564.697-.597.683-.034-.017.175-.347.47-.74.293-.394.56-.7.597-.683zM46.306 95.18c-.012.017-.276-.123-.692-.378a24.287 24.287 0 0 1-1.577-1.06c-.599-.438-1.129-.852-1.507-1.154-.38-.303-.61-.499-.597-.515.011-.017.265.148.658.43.432.314.953.698 1.532 1.118.597.437 1.149.818 1.547 1.095.399.274.647.445.636.465z" fill="#263238"/>
    <path d="M41.184 101.598c-1.048-.277-2.3.748-2.514 1.814-.217 1.067.181 2.159.65 3.145 1.033 2.178 2.458 4.197 4.336 5.701 1.878 1.503 4.227 2.464 6.63 2.452-.444-2.069.116-4.23-.132-6.33a8.315 8.315 0 0 0-2.374-4.886 8.26 8.26 0 0 0-4.885-2.336c-.669-.075-1.444-.182-1.711.44z" fill="#52BEA3"/>
    <path d="M50.285 114.707c-.002.006-.053-.019-.15-.07a2.802 2.802 0 0 1-.393-.263c-.329-.252-.705-.733-1.034-1.391-.167-.325-.354-.681-.538-1.073-.178-.392-.365-.812-.563-1.251-.2-.44-.42-.896-.694-1.339a11.08 11.08 0 0 0-.953-1.305c-.719-.848-1.488-1.579-2.157-2.279-.671-.697-1.234-1.369-1.644-1.982a7.36 7.36 0 0 1-.802-1.54 4.41 4.41 0 0 1-.14-.451.579.579 0 0 1-.033-.162c.014-.003.073.215.226.593.156.375.418.907.836 1.504.415.599.98 1.257 1.655 1.946.672.691 1.446 1.422 2.17 2.279.363.428.69.868.965 1.324.276.454.496.916.694 1.358l.552 1.258c.175.389.356.747.518 1.075.315.658.669 1.134.98 1.394.307.263.514.361.505.375z" fill="#263238"/>
    <path d="M44.862 112.988c-.02-.002.014-.274.097-.708.081-.434.218-1.03.399-1.677.181-.65.376-1.227.532-1.641.156-.414.268-.661.287-.655.02.008-.058.269-.19.689-.13.42-.306.999-.49 1.646a60.232 60.232 0 0 0-.437 1.66c-.109.426-.176.692-.198.686zM50.087 107.912c-.005.02-.287-.053-.738-.171-.452-.117-1.076-.28-1.77-.437a50.832 50.832 0 0 0-1.786-.366c-.46-.087-.744-.143-.741-.166.003-.019.292 0 .755.062a21.092 21.092 0 0 1 3.567.806c.449.146.719.252.713.272zM40.972 109.387c-.019-.002.023-.316.115-.82s.24-1.196.434-1.949a27.45 27.45 0 0 1 .569-1.915c.164-.484.281-.778.3-.773.02.006-.063.311-.2.804a81.42 81.42 0 0 0-.526 1.921c-.196.753-.357 1.436-.477 1.934-.117.496-.195.801-.215.798zM47.68 103.485c-.006.039-1.313-.067-2.924-.238-1.61-.171-2.912-.344-2.906-.383.005-.04 1.312.067 2.923.238 1.61.173 2.912.344 2.906.383z" fill="#263238"/>
    <path d="M46.72 119.434c0 .039-4.6.073-10.274.073-5.676 0-10.277-.034-10.277-.073 0-.039 4.6-.073 10.277-.073 5.674 0 10.275.034 10.275.073zM43.522 125.384c0 .039-3.099.073-6.922.073-3.824 0-6.925-.034-6.925-.073 0-.039 3.099-.073 6.925-.073 3.82 0 6.922.031 6.922.073zM43.4 126.235c0 .039-3.046.073-6.803.073-3.756 0-6.802-.034-6.802-.073 0-.039 3.046-.073 6.802-.073 3.757 0 6.802.031 6.802.073zM43.642 124.684c0 .039-3.208.073-7.162.073-3.957 0-7.162-.034-7.162-.073 0-.039 3.205-.073 7.162-.073 3.954-.003 7.162.031 7.162.073z" fill="#455A64"/>
    <path d="M165.735 46.402s-2.232-.362-3.531.68c-1.298 1.044-1.881 2.346-2.042 3.783-.162 1.433-1.193 6.977-1.193 6.977l-2.018-2.738-2.223 1.963s1.878 9.044 3.639 9.654c1.764.61 3.678-1.38 4.133-1.739.454-.358 3.235-18.58 3.235-18.58z" fill="#336DE9"/>
    <path d="M164.979 46.343s-2.928 4.2-3.268 5.272c-.34 1.073-2.812 3.013-2.765 5.555a24.63 24.63 0 0 0 .31 3.461c.106.65.094 1.316-.039 1.96l-1.146 5.541s.728 1.266 2.522 1.462c1.795.196 6.368 1.28 9.408 0l2.182-1.072v-8.574l1.505-3.508 4.28-6.97s-2.185-1.52-4.224-2.178c-2.143-.689-5.61-.75-8.765-.95z" fill="#336DE9"/>
    <path d="M158.3 67.03c-.005 0 .006-.068.025-.194l.101-.552.395-2.021c.073-.429.212-.885.282-1.389l.058-.384.034-.397c.03-.27.019-.546.019-.832a7.545 7.545 0 0 0-.295-1.758c-.159-.6-.368-1.238-.326-1.918.028-.678.237-1.31.479-1.887.245-.58.544-1.11.845-1.6.604-.98 1.217-1.81 1.722-2.52.498-.694.905-1.262 1.198-1.668.137-.188.242-.339.326-.454.075-.103.117-.156.12-.154.003.003-.031.062-.098.168-.078.118-.178.275-.303.468-.268.403-.666.983-1.165 1.694-.494.714-1.098 1.551-1.695 2.528a12.65 12.65 0 0 0-.827 1.588c-.24.571-.441 1.19-.468 1.84-.039.655.161 1.274.32 1.878.167.605.276 1.21.293 1.79-.003.288.005.574-.028.845-.014.137-.025.272-.039.403l-.064.387c-.076.51-.22.966-.298 1.391l-.438 2.01c-.053.228-.095.41-.125.547a.798.798 0 0 1-.048.19z" fill="#263238"/>
    <path d="M176.536 48.58s5.336 1.918 3.31 8.605c-1.613 5.322-4.926 11.675-7.025 11.804-1.089.065-2.277.025-3.015-.563-3.001-2.374-4.827-8.744-4.827-8.744l2.871-3.223 3.478 5.18c.39-.168 2.705-7.339 2.705-7.339s1.664-5.496 2.503-5.72z" fill="#336DE9"/>
    <path d="M174 54.9a.715.715 0 0 1-.036.129c-.034.092-.076.215-.129.366l-.501 1.386-1.817 4.923-.042.114-.07-.103c-1.028-1.523-2.218-3.29-3.486-5.175l.112.012-.354.364-2.647 2.719.016-.07c.441 1.408.878 2.707 1.388 3.827a17.782 17.782 0 0 0 1.544 2.817c.499.753.984 1.288 1.304 1.66l.393.41a.878.878 0 0 1 .131.148 1.358 1.358 0 0 1-.148-.13c-.1-.097-.237-.226-.409-.391-.335-.364-.831-.894-1.344-1.644a17.53 17.53 0 0 1-1.58-2.817c-.518-1.123-.967-2.427-1.41-3.833l-.014-.04.031-.03c.828-.854 1.722-1.772 2.645-2.721l.353-.364.062-.065.05.073 3.469 5.183-.111.014 1.867-4.906.535-1.375.145-.36A.753.753 0 0 1 174 54.9z" fill="#263238"/>
    <path d="m161.017 125.118.357 5.449s-5.392 2.192-5.423 3.206l10.537-.314-.207-8.512-5.264.171z" fill="#336DE9"/>
    <path d="M164.617 130.012a.432.432 0 0 1 .312.485.418.418 0 0 1-.476.316c-.206-.047-.393-.313-.329-.515s.34-.367.53-.272" fill="#E0E0E0"/>
    <path d="m166.504 133.834-.022-.977-10.133.367s-.462.218-.401.549l10.556.061zM161.2 130.519c.003.051.262.067.519.227.262.151.398.372.446.35.047-.011-.039-.319-.354-.504-.312-.193-.622-.12-.611-.073zM160.109 131.009c-.011.051.214.132.395.345.187.207.24.442.29.439.048.006.076-.297-.156-.557-.225-.263-.529-.274-.529-.227zM159.521 132.359c.047.008.111-.252-.031-.529-.139-.28-.384-.384-.404-.342-.028.042.134.19.245.423.117.227.14.442.19.448zM161.257 129.268c.022.047.256-.031.549-.02.292.006.521.098.546.051.028-.04-.198-.224-.541-.233-.343-.011-.579.163-.554.202z" fill="#263238"/>
    <path d="m170.725 125.224.31 5.452s-5.409 2.148-5.451 3.158l10.539-.224-.134-8.512-5.264.126z" fill="#336DE9"/>
    <path d="M174.284 130.147c.206.05.351.28.309.487a.415.415 0 0 1-.479.311c-.207-.048-.391-.317-.324-.518.067-.202.346-.364.533-.269" fill="#E0E0E0"/>
    <path d="m176.137 133.834-.011-.826-10.135.28s-.466.216-.404.546h10.55zM170.865 130.626c.002.05.262.07.518.229.262.154.396.375.443.353.047-.011-.036-.319-.351-.507-.315-.19-.624-.123-.61-.075zM169.767 131.107c-.011.05.215.134.393.347.187.21.234.445.287.443.047.008.078-.297-.151-.56-.225-.264-.529-.278-.529-.23zM169.168 132.451c.047.011.114-.249-.025-.529-.137-.283-.382-.389-.401-.344-.028.042.13.193.242.422.114.227.134.446.184.451zM170.932 129.374c.022.048.256-.031.549-.017.292.009.521.101.546.056.028-.039-.195-.224-.541-.235-.342-.014-.582.157-.554.196zM172.336 68.34s2.683 2.83 4.093 6.316c1.41 3.486.789 20.261.789 20.261l-.295 8.795s.423 7.56.1 12.95c-.326 5.387-.691 11.363-.691 11.363l-5.852.282-6.212-45.707 1.555 21.079c.99 5.376.873 14.859.68 24.62l-6.2.006s-2.135-14.591-2.622-18.055c-.549-3.917-2.171-14.689-2.171-14.689s-1.249-10.31-.817-15.862c.435-5.552 3.729-13.317 3.835-13.644l13.237 2.397" fill="#263238"/>
    <path d="m173.011 66.861 1.552 4.15s11.539 16.178 11.205 17.525c-.335 1.347-6.624 6.572-8.469 5.729-1.845-.843-6.624-4.298-8.218-7.75-1.594-3.456-6.122-13.144-6.122-13.144l-1.427-2.696 1.594-1.095 9.885-2.719zM158.428 66.284c1.399.754 1.248 3.111 2.647 3.864-2.332 3.282-3.132 7.418-3.45 11.438-.317 4.021-.22 8.095-1.022 12.049l-2.899-.205a68.794 68.794 0 0 1 2.469-23.074 10.17 10.17 0 0 1 2.255-4.072z" fill="#455A64"/>
    <path d="M169.717 73.091c.005.017.287-.039.73-.168a15.09 15.09 0 0 0 1.7-.619c.649-.28 1.218-.58 1.616-.814.399-.236.633-.4.624-.418-.011-.02-.262.118-.671.328a25.666 25.666 0 0 1-3.3 1.422c-.434.157-.705.25-.699.27z" fill="#263238"/>
    <path opacity=".2" d="m177.202 85.408.278.02c-1.909 1.98-5.102 2.568-7.585 1.4-.847-.398-1.686-1.137-1.65-2.075a16.986 16.986 0 0 0 8.957.655z" fill="#000"/>
    <path d="M162.789 70.686c1.078-.199 3.148.37 3.906 1.165s1.213 1.83 1.586 2.867c.811 2.245 1.385 4.732 3.143 6.342 1.653 1.515 4.002 1.918 6.212 2.26.061.82.05 1.797-.622 2.268-.197.14-.434.212-.666.277-.657.182-1.329.302-2.009.358-3.146.26-6.479-1.013-8.326-3.587-2.335-3.253-2.522-7.165-3.843-10.95" fill="#455A64"/>
    <path d="M162.17 71.688c-.002 0 .009.042.031.12l.106.348c.097.302.228.753.384 1.338.159.583.332 1.302.535 2.14.204.834.43 1.789.747 2.825.318 1.033.733 2.159 1.377 3.262a9.367 9.367 0 0 0 1.142 1.612c.455.51.984.975 1.58 1.375 1.196.798 2.642 1.341 4.189 1.538a10.348 10.348 0 0 0 4.169-.328c.198-.056.401-.126.585-.244a1.41 1.41 0 0 0 .451-.493c.106-.195.17-.408.207-.618.075-.426.058-.846.03-1.246l-.003-.056-.055-.009c-1.477-.23-2.924-.476-4.211-1.016-.641-.272-1.24-.608-1.75-1.039a6.515 6.515 0 0 1-1.285-1.464c-.694-1.073-1.1-2.232-1.471-3.302-.371-1.072-.686-2.085-1.104-2.956a6.906 6.906 0 0 0-.702-1.182 5.392 5.392 0 0 0-.409-.482 2.497 2.497 0 0 0-.471-.364 5.897 5.897 0 0 0-1.814-.686 4.97 4.97 0 0 0-1.215-.123 1.914 1.914 0 0 0-.421.053c.003.009.145-.022.421-.025.275 0 .688.028 1.203.149.513.12 1.146.308 1.787.7.158.098.312.218.454.355.139.146.273.305.398.476.254.345.482.74.686 1.17.41.866.716 1.877 1.081 2.955.368 1.072.769 2.24 1.471 3.332a6.65 6.65 0 0 0 1.307 1.495c.522.442 1.132.787 1.784 1.064 1.307.552 2.764.8 4.244 1.03l-.061-.064c.028.395.041.806-.028 1.21-.067.4-.251.797-.597 1.016-.331.204-.746.277-1.134.375a10.214 10.214 0 0 1-3.525.174 9.647 9.647 0 0 1-4.132-1.51 8.312 8.312 0 0 1-1.561-1.35 9.38 9.38 0 0 1-1.134-1.59c-.641-1.092-1.059-2.206-1.382-3.234-.324-1.03-.558-1.98-.767-2.813a69.899 69.899 0 0 0-.557-2.134 21.71 21.71 0 0 0-.412-1.333c-.051-.145-.092-.257-.12-.341a.57.57 0 0 0-.048-.11z" fill="#263238"/>
    <path d="M175.173 86.072c.045-.014-.301-.7-.201-1.602.084-.904.563-1.503.524-1.526-.011-.01-.147.12-.303.384a2.882 2.882 0 0 0-.24 2.307c.097.288.206.445.22.437z" fill="#263238"/>
    <path d="M175.095 84.053c-.003.04.549.11 1.231.154.683.045 1.241.05 1.243.011.003-.039-.549-.109-1.234-.154-.683-.044-1.24-.05-1.24-.01zM174.86 84.957c0 .04.574.085 1.282.099.708.014 1.285-.006 1.285-.045 0-.04-.574-.084-1.282-.098-.708-.014-1.285.005-1.285.044z" fill="#263238"/>
    <path d="M160.136 71.389c-1.931 1.753-2.656 4.53-2.583 7.145.069 2.616.827 5.152 1.407 7.703.582 2.551.989 5.225.365 7.765.825.117 1.653.238 2.477.355 2.024-2.15 3.052-5.208 2.745-8.153-.253-2.44-1.357-4.69-2.145-7.009-.792-2.318-1.26-4.933-.262-7.173" fill="#455A64"/>
    <path d="M162.14 72.025a.642.642 0 0 0-.05.109c-.034.078-.078.187-.137.327a7.12 7.12 0 0 0-.331 1.322 8.83 8.83 0 0 0-.023 2.162c.087.84.29 1.786.605 2.802.318 1.017.75 2.1 1.182 3.274.426 1.173.864 2.447 1.056 3.841a10.303 10.303 0 0 1-.354 4.363 10.389 10.389 0 0 1-2.335 4.085l.061-.023c-.385-.056-.8-.114-1.218-.176-.432-.062-.861-.123-1.259-.182l.058.09c.393-1.61.371-3.246.184-4.774-.187-1.535-.538-2.982-.869-4.354-.335-1.37-.652-2.669-.853-3.9-.204-1.23-.29-2.392-.243-3.448.098-2.12.744-3.757 1.377-4.74.307-.501.616-.84.819-1.072l.246-.25a.47.47 0 0 0 .08-.09.565.565 0 0 0-.089.08c-.061.058-.147.14-.256.24-.209.227-.527.563-.845 1.064-.649.983-1.318 2.63-1.429 4.766-.056 1.064.028 2.234.226 3.472.197 1.237.51 2.542.841 3.911.329 1.37.675 2.814.856 4.34.184 1.52.203 3.136-.184 4.724l-.02.078.078.011c.399.06.828.12 1.26.182l1.218.177.036.005.025-.028a10.461 10.461 0 0 0 2.363-4.144c.449-1.486.546-3.012.348-4.42-.195-1.412-.643-2.692-1.075-3.865-.438-1.173-.875-2.254-1.196-3.265-.32-1.01-.529-1.948-.621-2.783a8.984 8.984 0 0 1 0-2.145 7.285 7.285 0 0 1 .304-1.318c.053-.14.094-.25.122-.33.031-.076.042-.118.042-.118z" fill="#263238"/>
    <path d="M159.73 92c.005.045.783-.101 1.73.03.95.124 1.658.471 1.678.429.008-.017-.159-.123-.455-.25a4.708 4.708 0 0 0-1.203-.321 4.743 4.743 0 0 0-1.246-.006c-.318.04-.507.098-.504.118z" fill="#263238"/>
    <path d="M161.173 94.293c.036.017.296-.423.583-.986s.487-1.033.454-1.05c-.036-.017-.296.423-.583.986s-.49 1.033-.454 1.05zM159.878 94.108c.036.017.276-.459.535-1.058.259-.602.44-1.1.404-1.117-.036-.017-.276.459-.535 1.058-.259.602-.441 1.103-.404 1.117zM163.433 70.577c.017.005.059-.053.078-.168a.8.8 0 0 0-.058-.437.783.783 0 0 0-.276-.342c-.095-.061-.167-.072-.176-.056-.019.037.204.174.321.457.125.277.072.535.111.546z" fill="#263238"/>
    <path d="M160.212 69.97c.334-.53 1.126-.706 1.744-.782.758-.067 1.491.582 1.564 1.344.072.762-.485 1.52-1.218 1.72-.736.198-1.569-.15-1.99-.787-.289-.44-.381-1.048-.1-1.496z" fill="#455A64"/>
    <path d="M161.602 69.482c-.008-.011-.175.107-.329.392a1.715 1.715 0 0 0-.145 1.227c.131.487.466.828.739.99.276.169.479.188.479.174.009-.022-.178-.078-.423-.257a1.761 1.761 0 0 1-.655-.944 1.775 1.775 0 0 1 .097-1.145c.12-.277.254-.42.237-.437zM160.368 69.77c-.014-.01-.109.076-.201.26-.092.183-.162.471-.128.785.033.316.161.582.29.742.128.162.239.227.248.213.016-.017-.067-.107-.165-.272a1.76 1.76 0 0 1-.231-.697 1.696 1.696 0 0 1 .081-.73c.061-.183.125-.287.106-.3z" fill="#263238"/>
    <path opacity=".2" d="M160.178 71.386c.491.571 1.134.815 1.884.862-.145.34-.607.653-.972.678a1.022 1.022 0 0 1-.923-.49 1.015 1.015 0 0 1 .011-1.05zM168.994 73.825c.254-.317.655-.468 1.034-.605 1.435-.52 2.985-1.411 4.42-1.932-1.31 1.168-2.728 2.543-4.23 3.447-.362.218-.836.425-1.182.18-.329-.239-.298-.774-.042-1.09zM157.104 76.418c.223-1.734 1.02-3.442 2.411-4.489-.747 1.37-1.505 2.761-1.84 4.284-.367 1.675-.097 2.747.07 4.452l-.161.843c-.466-1.68-.703-3.357-.48-5.09z" fill="#000"/>
    <path d="M169.77 75.023c.005.009.083-.03.223-.109.139-.078.334-.199.574-.356a17.47 17.47 0 0 0 3.361-2.915c.189-.212.337-.391.434-.517.098-.126.148-.2.14-.205-.017-.014-.254.247-.65.655-.395.41-.953.958-1.608 1.526a26.218 26.218 0 0 1-1.736 1.375c-.459.33-.749.527-.738.546zM162.681 33.127c-.418-.748-.159-1.753.457-2.344.615-.593 1.51-.82 2.363-.795.852.025 1.68.272 2.499.518a2.784 2.784 0 0 1 2.667-1.025 2.787 2.787 0 0 1 2.11 1.93 1.756 1.756 0 0 1 1.761.293c.476.41.699 1.09.563 1.706l-3.612 1.828-3.191 7.843c-1.075 1.193-3.054 1.422-4.369.507-1.318-.916-1.8-2.86-1.065-4.29a2.862 2.862 0 0 1-.674-.647c-.708-.322-1.301-.89-1.569-1.624-.565-1.556.457-3.497 2.06-3.9z" fill="#263238"/>
    <path d="M167.175 47.28c.081-1.22.117-1.307.115-1.298 0 0-2.344-.583-2.595-3.733-.125-1.568.151-4.099.44-6.163.262-1.859 1.672-4.054 3.509-3.712l5.668 1.92c.557.104.716.597.66 1.165l.025.269-.961 8.893-.298 2.671c-.176 1.691-1.686 3.41-3.378 3.385-1.867-.025-3.31-1.517-3.185-3.396z" fill="#9F7362"/>
    <path d="M167.29 45.982s2.073.3 4.236-.787c0 0-1.218 2.114-4.295 1.582l.059-.795z" fill="#65463C"/>
    <path d="M172.743 32.452a2.168 2.168 0 0 1-.883 1.585 2.157 2.157 0 0 1-1.778.33c-.468-.123-.967-.403-1.396-.179-.452.232-.519.885-.925 1.19-.583.434-1.419-.078-2.127.076-.546.117-.919.607-1.309 1.013-.388.406-.953.776-1.477.577.069-.482.142-.966.32-1.42.178-.45.477-.873.9-1.108.232-.13.496-.196.716-.348.471-.327.622-.946.934-1.428a2.329 2.329 0 0 1 1.859-1.044c.613-.017 1.229.216 1.833.11.449-.08.853-.337 1.304-.387.878-.101 1.639.585 2.219 1.257" fill="#263238"/>
    <path d="M169.876 33.48c.396-.081 1.209-.275 1.444-.597.507-.7 1.343-1.142 2.154-1.036.811.107 1.546.812 1.647 1.691.986.082 1.9.779 2.304 1.75.404.972.276 2.184-.318 3.047-.156.227-.373.728-.373.728s.418.406.596.694c.822 1.339-.841 2.111-.841 2.111.12.958-.758 1.067-1.324 1.137-.54.067-.68 1.619-1.126 1.619l-.156-4.716a.626.626 0 0 1-.2.065c-1.059.157-1.043-1.896-.767-2.461-.351-.364-.705-.734-.961-1.185-.256-.448-.421-1.632-.321-2.15-.373-.008-1.934-.66-1.758-.697z" fill="#263238"/>
    <path d="M173.757 40.174c.084-.66.833-1.047 1.379-.672.301.208.513.591.432 1.291-.217 1.87-2.04 1.263-2.037 1.21 0-.034.128-1.056.226-1.829z" fill="#9F7362"/>
    <path d="M174.181 41.362c.008-.006.03.028.081.058.05.031.139.06.242.034.206-.05.407-.344.454-.68.025-.171.009-.336-.036-.476-.042-.143-.117-.25-.215-.28a.164.164 0 0 0-.2.067c-.031.05-.022.087-.034.09-.005.002-.036-.037-.011-.113a.205.205 0 0 1 .087-.109.241.241 0 0 1 .184-.025c.142.028.256.174.303.33.056.157.078.345.05.535-.055.375-.289.706-.568.75a.345.345 0 0 1-.29-.083c-.05-.054-.053-.096-.047-.098z" fill="#65463C"/>
    <path d="M163.764 38.906c.008-.014-.178-.106-.446-.358a2.689 2.689 0 0 1-.744-1.333 2.61 2.61 0 0 1-.033-1.056 2.27 2.27 0 0 1 .51-1.083c.549-.65 1.544-1.045 2.508-.84.089.017.17.047.256.07.081.03.159.067.237.098l.12.047-.014-.123a.928.928 0 0 1 .15-.622c.12-.181.287-.327.468-.44.371-.223.795-.282 1.19-.245.795.075 1.497.344 2.127.335.624 0 1.112-.22 1.36-.464.128-.118.195-.238.236-.317a.578.578 0 0 0 .048-.129c-.017-.01-.067.185-.321.407-.248.22-.721.414-1.323.403-.299-.006-.627-.07-.976-.151-.351-.079-.727-.18-1.139-.219a2.359 2.359 0 0 0-.641.02c-.218.039-.432.12-.633.235a1.596 1.596 0 0 0-.518.482 1.072 1.072 0 0 0-.173.72l.106-.077c-.081-.033-.165-.072-.251-.103-.089-.025-.178-.059-.273-.076-1.026-.218-2.068.205-2.642.896a2.372 2.372 0 0 0-.529 1.151 2.7 2.7 0 0 0 .053 1.1c.167.661.526 1.106.805 1.35.142.123.262.204.351.25a.595.595 0 0 0 .131.072zM163.31 32.5c.014.02.173-.168.555-.275.186-.05.429-.08.696-.028.265.048.558.182.778.426l.081.09.027-.118c.148-.636.736-1.3 1.544-1.498.608-.151 1.204.053 1.703.263.504.216.967.428 1.388.507.418.09.772.059 1-.011.114-.037.198-.076.251-.107.053-.033.081-.05.078-.056-.006-.01-.12.053-.346.107-.223.05-.563.064-.964-.034-.404-.087-.85-.305-1.357-.53a4.542 4.542 0 0 0-.833-.282 2.12 2.12 0 0 0-.956.003c-.867.213-1.485.924-1.633 1.61l.109-.028a1.449 1.449 0 0 0-.853-.443 1.54 1.54 0 0 0-.736.06 1.319 1.319 0 0 0-.418.226c-.08.067-.119.112-.114.118z" fill="#455A64"/>
    <path d="M176.522 36.313a.407.407 0 0 0 .083-.061c.051-.045.126-.112.209-.208.168-.19.399-.504.502-.96.05-.227.061-.49-.003-.759a1.551 1.551 0 0 0-.418-.764 1.224 1.224 0 0 0-.886-.359c-.337 0-.702.14-.922.44l.086.045a.05.05 0 0 0 .006-.02c.228-.669.228-1.4-.053-1.96-.273-.56-.789-.91-1.257-.963a1.377 1.377 0 0 0-1.034.294c-.1.081-.162.165-.201.221a.37.37 0 0 0-.05.093c.009.008.073-.126.273-.28a1.353 1.353 0 0 1 1.001-.255c.44.056.928.395 1.184.935.265.535.265 1.238.042 1.887a.05.05 0 0 0-.006.02l-.094.291.181-.244c.198-.268.532-.4.844-.4.318-.006.613.123.822.328.209.201.34.464.401.716.065.255.056.504.014.726a2.235 2.235 0 0 1-.465.949c-.156.19-.265.283-.259.288zM149.814 53.505l1.806 6.857c.1.381.446.642.836.636l9.355-.185a.851.851 0 0 0 .813-1.027l-1.376-6.566a.852.852 0 0 0-.831-.678h-9.862a.765.765 0 0 0-.741.963z" fill="#263238"/>
    <path d="M149.029 55.053c-.207-.226-.187-.604-.006-.85.184-.247.496-.37.803-.382.306-.01.607.076.891.188.354.135.694.305 1.012.507.226.143.46.328.504.593.045.264-.242.566-.474.434.301.13.605.449.655.782.048.336-.131.515-.451.61.245.095.401.406.29.644-.117.252-.463.32-.722.221-.259-.098-.449-.319-.63-.529.184.316.248.703.179 1.061a2.072 2.072 0 0 1-1.352-1.669.966.966 0 0 1-.259-1.181c-.287-.09-.613-.53-.591-.832" fill="#9F7362"/>
    <path d="M151.957 56.938c-.008.008-.12-.09-.309-.238-.187-.143-.46-.342-.811-.417a1.13 1.13 0 0 0-.494 0 .89.89 0 0 0-.359.182c-.181.151-.22.305-.234.297-.003 0 0-.04.028-.104a.734.734 0 0 1 .17-.235.946.946 0 0 1 .379-.21 1.12 1.12 0 0 1 .529-.009c.371.082.649.297.831.451.178.163.275.275.27.283zM151.879 55.574c-.005.012-.15-.047-.373-.157-.111-.053-.245-.12-.398-.173a3.431 3.431 0 0 0-.513-.135 1.485 1.485 0 0 0-.521-.005.943.943 0 0 0-.385.168c-.198.148-.24.308-.251.302-.002 0 0-.042.031-.106a.746.746 0 0 1 .187-.238.925.925 0 0 1 .404-.196c.167-.036.356-.034.549-.003.192.034.365.084.524.143.156.062.289.132.398.193.217.123.351.196.348.207z" fill="#65463C"/>
    <path d="m155.968 55.855.053-.009a.474.474 0 0 1 .498.4.477.477 0 0 1-.384.513.476.476 0 0 1-.521-.373.473.473 0 0 1 .354-.532z" fill="#fff"/>
    <path d="M165.055 53.497s-.992-1.946-1.285-1.831c-.293.115-.677.12-.49.857.186.736.674 1.24.646 1.82-.028.576-.479 1.873.022 2.475.499.602 1.346 2.419 1.346 2.419l2.199-2.251-.49-.725s.825-1.148.983-1.815c.162-.666-.08-1.61-.08-1.61s.058-.557-.24-.983c0 0 .053-.44.044-.89-.011-.45-1.164-2.307-1.164-2.307s-.588.227-.393.848c.192.619.454 1.148.454 1.148l-1.349-.518s-.351.658.365 1.047c.716.39.828.717.828.717l-1.028.079s-.095.574.317.691l.413.118-1.098.711z" fill="#9F7362"/>
    <path d="M165.654 52.632c.189.042.457.098.925.201l.014.003.006.014c.103.221.203.504.181.826a1.536 1.536 0 0 1-.427.919c-.281.282-.627.436-.919.59-.293.152-.546.317-.705.507a1.102 1.102 0 0 0-.257.518c-.025.137-.008.216-.016.216-.003 0-.009-.02-.014-.056a.593.593 0 0 1 0-.165c.014-.143.081-.35.245-.552.162-.204.418-.378.713-.538.293-.16.63-.313.895-.582.234-.25.387-.566.41-.868.025-.302-.065-.577-.162-.795l.019.017c-.562-.132-.914-.236-.908-.255zM167.683 52.755c-.014.003-.034-.09-.095-.218a.92.92 0 0 0-.379-.395 1.805 1.805 0 0 0-.53-.188c-.142-.03-.234-.045-.234-.059 0-.01.092-.016.243 0 .147.02.356.06.563.174.1.059.189.132.253.21a.828.828 0 0 1 .137.232c.05.149.05.244.042.244zM167.566 51.61c-.022.011-.176-.25-.438-.504-.259-.26-.521-.409-.509-.431.008-.02.295.103.568.372.27.266.396.554.379.563z" fill="#65463C"/>
</svg>
